<svg width="304" height="129" viewBox="0 0 304 129" fill="none" xmlns="http://www.w3.org/2000/svg">
  <g filter="url(#filter0_d_1132_2740)">
    <path d="M31.907 73.1645C27.8606 73.1645 24.3131 72.2471 21.2644 70.4125C18.2712 68.5779 15.9431 66.0265 14.2802 62.7585C12.6173 59.4331 11.7859 55.5919 11.7859 51.2345C11.7859 46.8199 12.6173 42.9499 14.2802 39.6245C15.9431 36.2419 18.2712 33.6331 21.2644 31.7985C24.3131 29.9065 27.8606 28.9605 31.907 28.9605C36.1198 28.9605 39.8058 29.9925 42.9653 32.0565C46.1803 34.1205 48.4806 36.9585 49.8664 40.5705L45.4597 42.1185C44.5728 39.4811 42.9099 37.4171 40.471 35.9265C38.0874 34.3785 35.2883 33.6045 32.0733 33.6045C29.0246 33.6045 26.3363 34.3211 24.0082 35.7545C21.7356 37.1879 19.9618 39.2231 18.6869 41.8605C17.4674 44.4979 16.8577 47.5939 16.8577 51.1485C16.8577 56.4231 18.2157 60.6371 20.9318 63.7905C23.7033 66.9439 27.3895 68.5205 31.9902 68.5205C35.0942 68.5205 37.838 67.8039 40.2216 66.3705C42.6051 64.8799 44.4065 62.8159 45.626 60.1785L49.9496 61.7265C48.4529 65.3385 46.1249 68.1479 42.9653 70.1545C39.8058 72.1611 36.1198 73.1645 31.907 73.1645ZM93.4917 73.5945C80.6873 73.5945 71.8739 64.2205 71.8739 51.7505C71.8739 39.2805 80.6873 29.9925 93.4917 29.9925C106.296 29.9925 115.109 39.2805 115.109 51.7505C115.109 64.2205 106.296 73.5945 93.4917 73.5945ZM76.6964 51.7505C76.6964 61.2965 83.0154 69.4665 93.4917 69.4665C103.968 69.4665 110.287 61.2965 110.287 51.7505C110.287 42.2905 103.968 34.1205 93.4917 34.1205C83.0154 34.1205 76.6964 42.2905 76.6964 51.7505ZM146.411 72.5625H141.417V30.5703H145.842L146.045 39.8505C147.398 36.6032 149.402 34.1116 152.053 32.376C154.733 30.6122 157.859 29.7305 161.432 29.7305C162.081 29.7305 162.744 29.7724 163.421 29.8565C164.125 29.9124 164.815 30.0104 165.492 30.1504L164.882 34.8115C163.556 34.5316 162.231 34.3917 160.904 34.3917C158.089 34.3917 155.586 35.1055 153.394 36.5332C151.201 37.9609 149.482 39.9346 148.238 42.4542C147.019 44.9456 146.411 47.8292 146.411 51.1044V72.5625ZM202.881 73.4225C199.777 73.4225 197.117 72.9351 194.899 71.9605C192.683 70.9859 190.991 69.6099 189.827 67.8325C188.663 65.9979 188.081 63.8765 188.081 61.4685C188.081 59.0031 188.663 56.9679 189.827 55.3625C191.047 53.7571 192.766 52.4671 194.982 51.4925C197.2 50.5179 199.833 49.8299 202.881 49.4285L217.847 47.5365C217.681 43.4659 216.49 40.4559 214.272 38.5065C212.11 36.5571 209.117 35.5825 205.292 35.5825C203.13 35.5825 201.08 36.0125 199.139 36.8725C197.2 37.6751 195.149 38.9939 192.987 40.8285L190.908 37.2165C192.683 35.4391 194.789 34.0059 197.227 32.9165C199.722 31.8271 202.411 31.2825 205.292 31.2825C211.002 31.2825 215.27 32.7159 218.097 35.5825C220.979 38.4491 222.42 42.5771 222.42 47.9665V72.5625H217.93V65.3385C216.434 68.0331 214.384 70.0685 211.778 71.4445C209.173 72.7631 206.207 73.4225 202.881 73.4225ZM203.546 69.2085C206.651 69.2085 209.256 68.5491 211.362 67.2305C213.469 65.8545 215.076 64.1059 216.184 61.9845C217.294 59.8631 217.847 57.6845 217.847 55.4485V51.5785L203.796 53.3845C200.304 53.7859 197.588 54.5885 195.647 55.7925C193.764 56.9965 192.82 58.8599 192.82 61.3825C192.82 63.7905 193.764 65.7111 195.647 67.1445C197.532 68.5205 200.166 69.2085 203.546 69.2085ZM252.198 72.5625V9.57422H257.192V38.087C260.115 32.5159 265.069 29.7305 272.051 29.7305C277.436 29.7305 281.633 31.3962 284.636 34.7276C287.667 38.0589 289.183 42.7201 289.183 48.7109V72.5625H284.189V49.7607C284.189 44.9177 283.012 41.1523 280.658 38.4648C278.303 35.7494 275.028 34.3917 270.833 34.3917C266.611 34.3917 263.282 35.7634 260.846 38.5068C258.41 41.2503 257.192 45.0017 257.192 49.7607V72.5625H252.198Z" fill="#0B0B0B" />
  </g>
  <path d="M14.2077 105.071C10.8611 105.071 8.40826 102.405 8.40826 99.115V99.072C8.40826 95.7825 10.8403 93.0735 14.2493 93.0735C16.3487 93.0735 17.6582 93.8045 18.6975 95.0085L16.7644 97.1585C16.0577 96.3845 15.3509 95.89 14.2285 95.89C12.6487 95.89 11.5262 97.3305 11.5262 99.029V99.072C11.5262 100.835 12.6279 102.254 14.3532 102.254C15.4133 102.254 16.1408 101.781 16.9099 101.029L18.7599 102.964C17.679 104.189 16.4318 105.071 14.2077 105.071ZM29.1247 105.071C25.7781 105.071 23.3046 102.641 23.3046 99.115V99.072C23.3046 95.7825 25.5703 93.0735 28.813 93.0735C32.5337 93.0735 34.2382 96.062 34.2382 99.33C34.2382 99.588 34.2174 99.889 34.1966 100.19H26.4433C26.7551 101.674 27.7528 102.448 29.1663 102.448C30.2264 102.448 30.9955 102.104 31.8685 101.265L33.677 102.921C32.6376 104.254 31.141 105.071 29.1247 105.071ZM26.4017 98.1475H31.1618C30.9747 96.6855 30.1433 95.6965 28.813 95.6965C27.5034 95.6965 26.6512 96.664 26.4017 98.1475ZM39.9187 104.813V93.2885H43.0782V94.9225C43.8057 93.955 44.7411 93.0735 46.3417 93.0735C48.7321 93.0735 50.1248 94.7075 50.1248 97.352V104.813H46.9653V98.384C46.9653 96.836 46.2585 96.0405 45.0529 96.0405C43.8473 96.0405 43.0782 96.836 43.0782 98.384V104.813H39.9187ZM59.9577 105.006C58.0246 105.006 56.7151 104.211 56.7151 101.545V96.0835H55.3848V93.2885H56.7151V90.343H59.8746V93.2885H62.4937V96.0835H59.8746V101.007C59.8746 101.76 60.1864 102.125 60.8931 102.125C61.4752 102.125 61.9948 101.975 62.4521 101.717V104.34C61.7869 104.748 61.0179 105.006 59.9577 105.006ZM68.3484 104.813V93.13H71.9029V94.7022C73.1189 93.6863 74.9429 92.8397 76.837 92.8397V96.2018C76.6032 96.1534 76.229 96.1292 75.5743 96.1292C74.0075 96.1292 72.5576 96.6614 71.9029 97.3386V104.813H68.3484ZM87.6744 105.071C84.3278 105.071 81.8542 102.641 81.8542 99.115V99.072C81.8542 95.7825 84.1199 93.0735 87.3626 93.0735C91.0833 93.0735 92.7878 96.062 92.7878 99.33C92.7878 99.588 92.767 99.889 92.7462 100.19H84.9929C85.3047 101.674 86.3025 102.448 87.716 102.448C88.7761 102.448 89.5451 102.104 90.4182 101.265L92.2266 102.921C91.1873 104.254 89.6906 105.071 87.6744 105.071ZM84.9514 98.1475H89.7114C89.5243 96.6855 88.6929 95.6965 87.3626 95.6965C86.053 95.6965 85.2008 96.664 84.9514 98.1475ZM113.493 105.071C110.042 105.071 107.486 102.426 107.486 99.115V99.072C107.486 95.761 110.063 93.0735 113.534 93.0735C116.985 93.0735 119.542 95.718 119.542 99.029V99.072C119.542 102.383 116.964 105.071 113.493 105.071ZM113.534 102.254C115.343 102.254 116.424 100.814 116.424 99.115V99.072C116.424 97.3735 115.239 95.89 113.493 95.89C111.684 95.89 110.604 97.3305 110.604 99.029V99.072C110.604 100.771 111.788 102.254 113.534 102.254ZM125.696 104.813V96.0835H124.386V93.396H125.696V92.665C125.696 91.3965 126.007 90.472 126.589 89.87C127.172 89.268 128.024 88.967 129.146 88.967C130.144 88.967 130.81 89.096 131.392 89.2895V91.9985C130.934 91.8265 130.498 91.719 129.957 91.719C129.229 91.719 128.814 92.106 128.814 92.966V93.4175H131.371V96.0835H128.855V104.813H125.696ZM146.176 104.813V93.13H149.73V94.7022C150.946 93.6863 152.77 92.8397 154.665 92.8397V96.2018C154.431 96.1534 154.057 96.1292 153.402 96.1292C151.835 96.1292 150.385 96.6614 149.73 97.3386V104.813H146.176ZM163.922 105.028C161.532 105.028 160.139 103.394 160.139 100.749V93.2885H163.299V99.717C163.299 101.265 164.005 102.061 165.211 102.061C166.417 102.061 167.186 101.265 167.186 99.717V93.2885H170.345V104.813H167.186V103.179C166.458 104.146 165.523 105.028 163.922 105.028ZM176.699 104.813V93.13H180.254V94.7022C181.47 93.6863 183.294 92.8397 185.188 92.8397V96.2018C184.954 96.1534 184.58 96.1292 183.925 96.1292C182.358 96.1292 180.909 96.6614 180.254 97.3386V104.813H176.699ZM193.904 105.028C191.805 105.028 190.079 103.781 190.079 101.502V101.459C190.079 98.943 191.929 97.782 194.569 97.782C195.692 97.782 196.502 97.9755 197.292 98.255V98.0615C197.292 96.707 196.481 95.9545 194.902 95.9545C193.696 95.9545 192.844 96.191 191.825 96.578L191.035 94.084C192.262 93.525 193.467 93.1595 195.359 93.1595C197.084 93.1595 198.331 93.6325 199.121 94.4495C199.953 95.3095 200.327 96.578 200.327 98.126V104.813H197.271V103.566C196.502 104.447 195.442 105.028 193.904 105.028ZM194.86 102.77C196.336 102.77 197.334 101.932 197.334 100.749V100.169C196.793 99.9105 196.087 99.7385 195.317 99.7385C193.966 99.7385 193.135 100.298 193.135 101.33V101.373C193.135 102.254 193.842 102.77 194.86 102.77ZM209.947 104.942C209.061 104.942 208.334 104.834 207.765 104.619C207.197 104.39 206.775 103.981 206.497 103.394C206.234 102.792 206.102 101.924 206.102 100.792V89.7625H209.303V100.298C209.303 101 209.394 101.494 209.573 101.781C209.768 102.053 210.163 102.19 210.758 102.19C210.924 102.19 211.063 102.19 211.173 102.19C211.285 102.175 211.396 102.161 211.506 102.147V104.877C211.368 104.891 211.215 104.899 211.049 104.899C210.897 104.913 210.724 104.92 210.529 104.92C210.35 104.934 210.155 104.942 209.947 104.942ZM229.377 105.028C227.278 105.028 225.552 103.781 225.552 101.502V101.459C225.552 98.943 227.402 97.782 230.042 97.782C231.165 97.782 231.975 97.9755 232.765 98.255V98.0615C232.765 96.707 231.955 95.9545 230.375 95.9545C229.169 95.9545 228.317 96.191 227.298 96.578L226.509 94.084C227.735 93.525 228.941 93.1595 230.832 93.1595C232.557 93.1595 233.805 93.6325 234.594 94.4495C235.426 95.3095 235.8 96.578 235.8 98.126V104.813H232.744V103.566C231.975 104.447 230.915 105.028 229.377 105.028ZM230.333 102.77C231.809 102.77 232.807 101.932 232.807 100.749V100.169C232.266 99.9105 231.56 99.7385 230.791 99.7385C229.439 99.7385 228.608 100.298 228.608 101.33V101.373C228.608 102.254 229.315 102.77 230.333 102.77ZM245.375 109.978C243.791 109.978 242.58 109.691 241.741 109.117C240.908 108.55 240.493 107.752 240.493 106.723C240.493 106.016 240.706 105.425 241.132 104.949C241.558 104.473 242.184 104.134 243.01 103.931C242.692 103.791 242.414 103.563 242.178 103.248C241.941 102.926 241.823 102.587 241.823 102.23C241.823 101.782 241.948 101.411 242.198 101.117C242.448 100.816 242.81 100.522 243.284 100.235C242.688 99.9694 242.215 99.5425 241.863 98.9546C241.518 98.3667 241.345 97.6739 241.345 96.8761C241.345 96.0221 241.524 95.2979 241.883 94.703C242.249 94.101 242.776 93.6426 243.466 93.3276C244.164 93.0128 245.01 92.8553 246.004 92.8553C246.214 92.8553 246.457 92.8693 246.735 92.8972C247.012 92.9252 247.266 92.9568 247.496 92.9917C247.733 93.0268 247.891 93.0547 247.973 93.0757H251.932V94.703L250.156 95.1753C250.318 95.4342 250.439 95.7108 250.521 96.0047C250.601 96.2987 250.643 96.61 250.643 96.939C250.643 98.1987 250.215 99.1821 249.363 99.8889C248.517 100.589 247.34 100.939 245.831 100.939C245.472 100.918 245.134 100.89 244.816 100.855C244.66 100.981 244.542 101.114 244.461 101.254C244.38 101.394 244.339 101.541 244.339 101.695C244.339 101.849 244.4 101.978 244.523 102.083C244.651 102.181 244.84 102.258 245.09 102.314C245.347 102.363 245.666 102.387 246.045 102.387H247.973C249.218 102.387 250.165 102.664 250.814 103.217C251.472 103.77 251.799 104.582 251.799 105.652C251.799 107.024 251.244 108.088 250.135 108.844C249.032 109.6 247.446 109.978 245.375 109.978ZM245.506 107.889C246.244 107.889 246.877 107.815 247.404 107.668C247.939 107.528 248.349 107.325 248.633 107.059C248.916 106.8 249.059 106.489 249.059 106.125C249.059 105.831 248.975 105.596 248.806 105.421C248.643 105.253 248.393 105.135 248.054 105.064C247.722 104.994 247.296 104.96 246.775 104.96H245.172C244.793 104.96 244.451 105.022 244.147 105.148C243.848 105.275 243.612 105.449 243.436 105.673C243.26 105.904 243.173 106.17 243.173 106.471C243.173 106.912 243.375 107.259 243.781 107.511C244.194 107.762 244.769 107.889 245.506 107.889ZM246.004 98.9862C246.586 98.9862 247.012 98.8006 247.283 98.4297C247.553 98.0589 247.689 97.5549 247.689 96.918C247.689 96.2112 247.547 95.6827 247.262 95.3328C246.984 94.9759 246.566 94.7974 246.004 94.7974C245.436 94.7974 245.01 94.9759 244.725 95.3328C244.441 95.6827 244.299 96.2112 244.299 96.918C244.299 97.5549 244.438 98.0589 244.715 98.4297C244.999 98.8006 245.429 98.9862 246.004 98.9862ZM256.987 92.02V89.1175H260.312V92.02H256.987ZM257.07 104.813V93.2885H260.229V104.813H257.07ZM266.522 104.813V93.2885H269.682V94.9225C270.409 93.955 271.345 93.0735 272.945 93.0735C275.336 93.0735 276.728 94.7075 276.728 97.352V104.813H273.569V98.384C273.569 96.836 272.862 96.0405 271.656 96.0405C270.451 96.0405 269.682 96.836 269.682 98.384V104.813H266.522ZM286.329 109.978C284.745 109.978 283.535 109.691 282.695 109.117C281.863 108.55 281.447 107.752 281.447 106.723C281.447 106.016 281.66 105.425 282.086 104.949C282.512 104.473 283.138 104.134 283.963 103.931C283.646 103.791 283.368 103.563 283.132 103.248C282.894 102.926 282.776 102.587 282.776 102.23C282.776 101.782 282.902 101.411 283.151 101.117C283.402 100.816 283.765 100.522 284.237 100.235C283.642 99.9694 283.168 99.5425 282.817 98.9546C282.472 98.3667 282.299 97.6739 282.299 96.8761C282.299 96.0221 282.478 95.2979 282.837 94.703C283.202 94.101 283.731 93.6426 284.421 93.3276C285.117 93.0128 285.963 92.8553 286.958 92.8553C287.167 92.8553 287.411 92.8693 287.689 92.8972C287.966 92.9252 288.219 92.9568 288.449 92.9917C288.687 93.0268 288.845 93.0547 288.927 93.0757H292.886V94.703L291.109 95.1753C291.271 95.4342 291.393 95.7108 291.475 96.0047C291.555 96.2987 291.596 96.61 291.596 96.939C291.596 98.1987 291.17 99.1821 290.317 99.8889C289.472 100.589 288.295 100.939 286.785 100.939C286.426 100.918 286.089 100.89 285.77 100.855C285.615 100.981 285.496 101.114 285.416 101.254C285.334 101.394 285.294 101.541 285.294 101.695C285.294 101.849 285.355 101.978 285.475 102.083C285.604 102.181 285.794 102.258 286.044 102.314C286.302 102.363 286.62 102.387 286.998 102.387H288.927C290.172 102.387 291.119 102.664 291.769 103.217C292.425 103.77 292.753 104.582 292.753 105.652C292.753 107.024 292.199 108.088 291.089 108.844C289.986 109.6 288.399 109.978 286.329 109.978ZM286.46 107.889C287.198 107.889 287.831 107.815 288.358 107.668C288.894 107.528 289.303 107.325 289.586 107.059C289.87 106.8 290.013 106.489 290.013 106.125C290.013 105.831 289.928 105.596 289.759 105.421C289.596 105.253 289.347 105.135 289.008 105.064C288.677 104.994 288.25 104.96 287.73 104.96H286.125C285.747 104.96 285.405 105.022 285.1 105.148C284.803 105.275 284.566 105.449 284.389 105.673C284.214 105.904 284.126 106.17 284.126 106.471C284.126 106.912 284.33 107.259 284.735 107.511C285.148 107.762 285.724 107.889 286.46 107.889ZM286.958 98.9862C287.54 98.9862 287.966 98.8006 288.236 98.4297C288.508 98.0589 288.643 97.5549 288.643 96.918C288.643 96.2112 288.501 95.6827 288.217 95.3328C287.939 94.9759 287.519 94.7974 286.958 94.7974C286.39 94.7974 285.963 94.9759 285.679 95.3328C285.395 95.6827 285.253 96.2112 285.253 96.918C285.253 97.5549 285.391 98.0589 285.669 98.4297C285.954 98.8006 286.382 98.9862 286.958 98.9862ZM108.273 126.614L106.59 124.851C105.405 125.861 104.012 126.528 102.328 126.528C99.543 126.528 97.4436 124.851 97.4436 122.185V122.142C97.4436 120.228 98.4413 118.874 100.27 118.014C99.5638 116.982 99.252 116.036 99.252 115.004V114.961C99.252 112.897 100.853 111.005 103.659 111.005C106.132 111.005 107.754 112.682 107.754 114.789V114.832C107.754 116.853 106.506 118.035 104.698 118.766L106.631 120.766C107.109 119.992 107.587 119.11 108.045 118.186L110.393 119.519C109.832 120.572 109.209 121.69 108.481 122.701L110.622 124.915L108.273 126.614ZM103.035 117.025C104.303 116.53 104.968 115.971 104.968 115.025V114.982C104.968 114.122 104.407 113.585 103.596 113.585C102.744 113.585 102.183 114.208 102.183 115.111V115.154C102.183 115.821 102.432 116.315 103.035 117.025ZM102.702 123.819C103.43 123.819 104.137 123.496 104.802 122.959L102.017 120.035C101.06 120.551 100.665 121.282 100.665 122.013V122.056C100.665 123.109 101.518 123.819 102.702 123.819ZM125.507 126.313V110.618H128.667V116.423C129.394 115.455 130.329 114.574 131.93 114.574C134.32 114.574 135.713 116.208 135.713 118.852V126.313H132.553V119.884C132.553 118.336 131.846 117.541 130.641 117.541C129.436 117.541 128.667 118.336 128.667 119.884V126.313H125.507ZM147.063 126.571C143.717 126.571 141.243 124.141 141.243 120.615V120.572C141.243 117.283 143.509 114.574 146.751 114.574C150.472 114.574 152.177 117.562 152.177 120.83C152.177 121.088 152.156 121.389 152.135 121.69H144.382C144.694 123.174 145.691 123.948 147.105 123.948C148.165 123.948 148.934 123.604 149.807 122.765L151.615 124.421C150.576 125.754 149.079 126.571 147.063 126.571ZM144.34 119.648H149.1C148.913 118.186 148.082 117.197 146.751 117.197C145.442 117.197 144.59 118.164 144.34 119.648ZM161.017 126.528C158.918 126.528 157.193 125.281 157.193 123.002V122.959C157.193 120.443 159.043 119.282 161.683 119.282C162.805 119.282 163.616 119.476 164.406 119.755V119.562C164.406 118.207 163.595 117.455 162.015 117.455C160.809 117.455 159.957 117.691 158.939 118.078L158.149 115.584C159.375 115.025 160.581 114.66 162.472 114.66C164.198 114.66 165.445 115.133 166.235 115.95C167.066 116.81 167.44 118.078 167.44 119.626V126.313H164.385V125.066C163.616 125.947 162.556 126.528 161.017 126.528ZM161.974 124.27C163.449 124.27 164.447 123.432 164.447 122.249V121.669C163.907 121.411 163.2 121.239 162.431 121.239C161.08 121.239 160.248 121.798 160.248 122.83V122.873C160.248 123.754 160.955 124.27 161.974 124.27ZM177.059 126.442C176.173 126.442 175.446 126.334 174.877 126.119C174.309 125.89 173.887 125.481 173.609 124.894C173.346 124.292 173.214 123.424 173.214 122.292V111.263H176.415V121.798C176.415 122.5 176.506 122.994 176.685 123.281C176.88 123.553 177.275 123.69 177.87 123.69C178.036 123.69 178.175 123.69 178.286 123.69C178.397 123.675 178.508 123.661 178.618 123.647V126.377C178.48 126.391 178.327 126.399 178.161 126.399C178.009 126.413 177.836 126.42 177.641 126.42C177.462 126.434 177.267 126.442 177.059 126.442ZM187.536 126.506C185.602 126.506 184.293 125.711 184.293 123.045V117.584H182.963V114.789H184.293V111.843H187.452V114.789H190.071V117.584H187.452V122.507C187.452 123.26 187.764 123.625 188.471 123.625C189.053 123.625 189.573 123.475 190.03 123.217V125.84C189.365 126.248 188.596 126.506 187.536 126.506ZM195.725 126.313V110.618H198.885V116.423C199.612 115.455 200.548 114.574 202.148 114.574C204.539 114.574 205.931 116.208 205.931 118.852V126.313H202.772V119.884C202.772 118.336 202.065 117.541 200.86 117.541C199.654 117.541 198.885 118.336 198.885 119.884V126.313H195.725Z" fill="#2C2B2B" />
  <defs>
    <filter id="filter0_d_1132_2740" x="7.78586" y="9.57422" width="285.397" height="72.0203" filterUnits="userSpaceOnUse" color-interpolation-filters="sRGB">
      <feFlood flood-opacity="0" result="BackgroundImageFix" />
      <feColorMatrix in="SourceAlpha" type="matrix" values="0 0 0 0 0 0 0 0 0 0 0 0 0 0 0 0 0 0 127 0" result="hardAlpha" />
      <feOffset dy="4" />
      <feGaussianBlur stdDeviation="2" />
      <feComposite in2="hardAlpha" operator="out" />
      <feColorMatrix type="matrix" values="0 0 0 0 0 0 0 0 0 0 0 0 0 0 0 0 0 0 0.25 0" />
      <feBlend mode="normal" in2="BackgroundImageFix" result="effect1_dropShadow_1132_2740" />
      <feBlend mode="normal" in="SourceGraphic" in2="effect1_dropShadow_1132_2740" result="shape" />
    </filter>
  </defs>
</svg>