<svg width="31" height="32" viewBox="0 0 31 32" fill="none" xmlns="http://www.w3.org/2000/svg">
<path fill-rule="evenodd" clip-rule="evenodd" d="M15.4998 3.98157C20.9214 3.98157 25.3063 8.36645 25.3063 13.788C25.3063 21.1429 15.4998 32 15.4998 32C15.4998 32 5.69336 21.1429 5.69336 13.788C5.69336 8.36645 10.0782 3.98157 15.4998 3.98157ZM8.49609 13.7876C8.49609 17.7802 12.5868 23.8882 15.5007 27.6287C18.4707 23.8602 22.5053 17.8222 22.5053 13.7876C22.5053 9.92104 19.3672 6.78298 15.5007 6.78298C11.6342 6.78298 8.49609 9.92104 8.49609 13.7876ZM15.5004 17.2899C13.5661 17.2899 11.998 15.7218 11.998 13.7875C11.998 11.8533 13.5661 10.2852 15.5004 10.2852C17.4346 10.2852 19.0027 11.8533 19.0027 13.7875C19.0027 15.7218 17.4346 17.2899 15.5004 17.2899Z" fill="black"/>
</svg>
