<svg width="32" height="32" viewBox="0 0 32 32" fill="none" xmlns="http://www.w3.org/2000/svg">
<path fill-rule="evenodd" clip-rule="evenodd" d="M26.932 20.6145C26.8152 20.4046 26.5035 20.2786 26.036 20.0264C25.5686 19.7743 23.2703 18.5564 22.8418 18.3882C22.4133 18.2202 22.1015 18.1363 21.79 18.6401C21.4784 19.1443 20.5825 20.2786 20.3098 20.6145C20.0371 20.9506 19.7643 20.9927 19.2971 20.7407C18.8296 20.4886 17.3233 19.9569 15.5378 18.2413C14.148 16.906 13.2098 15.2573 12.9371 14.7531C12.6644 14.249 12.9081 13.9765 13.1421 13.7254C13.3524 13.4997 13.6096 13.1371 13.8433 12.8432C14.0771 12.5492 14.155 12.3391 14.3107 12.0033C14.4666 11.6671 14.3887 11.3731 14.2718 11.121C14.155 10.869 13.22 8.3904 12.8305 7.38215C12.451 6.40031 12.0657 6.53333 11.7787 6.51779C11.5063 6.50311 11.1944 6.5 10.8828 6.5C10.5712 6.5 10.0646 6.62596 9.63621 7.13009C9.20766 7.63422 8 8.85245 8 11.3309C8 13.8094 9.67514 16.2038 9.90889 16.5399C10.1426 16.876 13.2052 21.962 17.8946 24.1432C19.01 24.662 19.8806 24.9718 20.5596 25.2038C21.6795 25.5872 22.6986 25.5331 23.5039 25.4033C24.4022 25.2589 26.2697 24.1854 26.6594 23.0092C27.0488 21.8328 27.0488 20.8245 26.932 20.6145Z" fill="#040404"/>
</svg>
