<svg width="119" height="48" viewBox="0 0 119 48" fill="none" xmlns="http://www.w3.org/2000/svg">
<g clip-path="url(#clip0_991_1985)">
<path d="M22.704 13.832C25.328 13.832 27.376 14.6 28.848 16.136C30.352 17.64 31.104 19.736 31.104 22.424C31.104 23.32 31.008 24.28 30.816 25.304L28.032 41H18.624L21.168 26.552C21.264 26.072 21.312 25.64 21.312 25.256C21.312 24.104 20.976 23.208 20.304 22.568C19.664 21.928 18.752 21.608 17.568 21.608C16.224 21.608 15.088 22.024 14.16 22.856C13.232 23.688 12.608 24.84 12.288 26.312L9.696 41H0.24L5.04 14.072H14.448L13.776 17.912C14.832 16.696 16.128 15.72 17.664 14.984C19.2 14.216 20.88 13.832 22.704 13.832ZM44.9062 41.336C42.6663 41.336 40.6663 41 38.9062 40.328C37.1463 39.656 35.7703 38.712 34.7783 37.496C33.7863 36.248 33.2903 34.824 33.2903 33.224C33.2903 32.936 33.3223 32.504 33.3863 31.928H42.4583C42.4263 32.824 42.6983 33.512 43.2743 33.992C43.8503 34.472 44.6503 34.712 45.6743 34.712C46.4743 34.712 47.1303 34.552 47.6423 34.232C48.1863 33.912 48.4583 33.496 48.4583 32.984C48.4583 32.376 48.1223 31.912 47.4503 31.592C46.7783 31.24 45.6583 30.808 44.0903 30.296C42.2663 29.72 40.7623 29.16 39.5783 28.616C38.3943 28.072 37.3543 27.272 36.4583 26.216C35.5943 25.16 35.1623 23.8 35.1623 22.136C35.1623 20.536 35.6263 19.096 36.5543 17.816C37.5143 16.536 38.8583 15.544 40.5863 14.84C42.3143 14.104 44.3143 13.736 46.5863 13.736C49.0183 13.736 51.1143 14.152 52.8743 14.984C54.6663 15.784 55.9943 16.904 56.8583 18.344C57.7543 19.784 58.1543 21.384 58.0583 23.144H49.6103C49.6423 22.28 49.3863 21.608 48.8423 21.128C48.2983 20.616 47.5143 20.36 46.4903 20.36C45.7543 20.36 45.1463 20.52 44.6663 20.84C44.1863 21.16 43.9463 21.576 43.9463 22.088C43.9463 22.696 44.2823 23.176 44.9543 23.528C45.6583 23.88 46.8263 24.328 48.4583 24.872C50.2503 25.448 51.7383 26.024 52.9223 26.6C54.1383 27.144 55.1783 27.928 56.0423 28.952C56.9063 29.944 57.3383 31.224 57.3383 32.792C57.3383 35.448 56.1863 37.544 53.8823 39.08C51.5783 40.584 48.5863 41.336 44.9062 41.336ZM61.2915 27.512C61.8035 24.696 62.8115 22.264 64.3155 20.216C65.8515 18.136 67.7395 16.536 69.9795 15.416C72.2515 14.296 74.7155 13.736 77.3715 13.736C80.7955 13.736 83.5155 14.68 85.5315 16.568C87.5475 18.424 88.6035 21.032 88.6995 24.392H78.6675C78.4115 22.632 77.4355 21.752 75.7395 21.752C74.5555 21.752 73.5315 22.248 72.6675 23.24C71.8035 24.2 71.2115 25.624 70.8915 27.512C70.7635 28.152 70.6995 28.792 70.6995 29.432C70.6995 30.712 70.9715 31.688 71.5155 32.36C72.0595 33 72.7955 33.32 73.7235 33.32C75.4515 33.32 76.7155 32.44 77.5155 30.68H87.5475C86.2995 34.008 84.3315 36.616 81.6435 38.504C78.9875 40.392 75.9315 41.336 72.4755 41.336C68.9555 41.336 66.1555 40.376 64.0755 38.456C62.0275 36.536 61.0035 33.896 61.0035 30.536C61.0035 29.576 61.0995 28.568 61.2915 27.512ZM90.4478 27.512C90.9598 24.696 91.9678 22.264 93.4718 20.216C95.0078 18.136 96.8958 16.536 99.1358 15.416C101.408 14.296 103.872 13.736 106.528 13.736C109.952 13.736 112.672 14.68 114.688 16.568C116.704 18.424 117.76 21.032 117.856 24.392H107.824C107.568 22.632 106.592 21.752 104.896 21.752C103.712 21.752 102.688 22.248 101.824 23.24C100.96 24.2 100.368 25.624 100.048 27.512C99.9198 28.152 99.8558 28.792 99.8558 29.432C99.8558 30.712 100.128 31.688 100.672 32.36C101.216 33 101.952 33.32 102.88 33.32C104.608 33.32 105.872 32.44 106.672 30.68H116.704C115.456 34.008 113.488 36.616 110.8 38.504C108.144 40.392 105.088 41.336 101.632 41.336C98.1118 41.336 95.3118 40.376 93.2318 38.456C91.1838 36.536 90.1598 33.896 90.1598 30.536C90.1598 29.576 90.2558 28.568 90.4478 27.512Z" fill="#F9F9F9"/>
</g>
<defs>
<clipPath id="clip0_991_1985">
<rect width="119" height="48" fill="white"/>
</clipPath>
</defs>
</svg>
