<svg width="631" height="259" viewBox="0 0 631 259" fill="none" xmlns="http://www.w3.org/2000/svg">
<g filter="url(#filter0_d_991_1862)">
<path d="M66.228 146.896C57.829 146.896 50.4657 145.054 44.1376 141.371C37.9247 137.687 33.0924 132.565 29.6408 126.003C26.1892 119.327 24.4634 111.615 24.4634 102.866C24.4634 94.0027 26.1892 86.2327 29.6408 79.5562C33.0924 72.7647 37.9247 67.527 44.1376 63.8435C50.4657 60.0448 57.829 58.1455 66.228 58.1455C74.9722 58.1455 82.6232 60.2175 89.1813 64.3615C95.8546 68.5055 100.629 74.2035 103.506 81.4555L94.3588 84.5635C92.5178 79.2683 89.0662 75.1243 84.0039 72.1315C79.0565 69.0235 73.2464 67.4695 66.5732 67.4695C60.2451 67.4695 54.6651 68.9083 49.8328 71.7862C45.1157 74.664 41.4338 78.7503 38.7876 84.0455C36.2563 89.3407 34.9908 95.5567 34.9908 102.694C34.9908 113.284 37.8096 121.744 43.4473 128.076C49.1999 134.407 56.8512 137.572 66.4006 137.572C72.8436 137.572 78.5387 136.133 83.4862 133.255C88.4336 130.263 92.1727 126.119 94.7039 120.824L103.678 123.932C100.572 131.184 95.7394 136.824 89.1813 140.853C82.6232 144.882 74.9722 146.896 66.228 146.896ZM194.057 147.76C167.479 147.76 149.186 128.939 149.186 103.902C149.186 78.8655 167.479 60.2175 194.057 60.2175C220.634 60.2175 238.928 78.8655 238.928 103.902C238.928 128.939 220.634 147.76 194.057 147.76ZM159.195 103.902C159.195 123.068 172.312 139.472 194.057 139.472C215.802 139.472 228.918 123.068 228.918 103.902C228.918 84.9088 215.802 68.5055 194.057 68.5055C172.312 68.5055 159.195 84.9088 159.195 103.902ZM303.899 145.688H293.534V61.3776H302.718L303.139 80.01C305.949 73.4902 310.107 68.4877 315.611 65.0031C321.174 61.4618 327.662 59.6914 335.077 59.6914C336.425 59.6914 337.801 59.7756 339.206 59.9445C340.667 60.0567 342.099 60.2534 343.504 60.5345L342.239 69.8928C339.486 69.3308 336.736 69.0499 333.982 69.0499C328.139 69.0499 322.943 70.4831 318.393 73.3496C313.842 76.2161 310.274 80.1788 307.691 85.2374C305.161 90.2396 303.899 96.0291 303.899 102.605V145.688ZM421.112 147.414C414.669 147.414 409.147 146.436 404.544 144.479C399.943 142.522 396.433 139.759 394.016 136.191C391.6 132.507 390.392 128.248 390.392 123.414C390.392 118.464 391.6 114.377 394.016 111.154C396.548 107.931 400.116 105.341 404.716 103.384C409.319 101.427 414.785 100.046 421.112 99.2402L452.176 95.4415C451.831 87.2687 449.358 81.2254 444.755 77.3115C440.268 73.3976 434.055 71.4408 426.116 71.4408C421.629 71.4408 417.374 72.3042 413.345 74.0308C409.319 75.6423 405.062 78.29 400.574 81.9735L396.26 74.7215C399.943 71.153 404.315 68.2754 409.376 66.0882C414.554 63.901 420.135 62.8075 426.116 62.8075C437.968 62.8075 446.826 65.6854 452.694 71.4408C458.678 77.1963 461.668 85.4843 461.668 96.3048V145.688H452.349V131.184C449.242 136.594 444.987 140.68 439.578 143.443C434.171 146.09 428.015 147.414 421.112 147.414ZM422.492 138.954C428.937 138.954 434.344 137.63 438.715 134.982C443.089 132.22 446.424 128.709 448.725 124.449C451.027 120.19 452.176 115.816 452.176 111.327V103.557L423.01 107.183C415.762 107.989 410.126 109.6 406.097 112.018C402.187 114.435 400.229 118.176 400.229 123.241C400.229 128.076 402.187 131.932 406.097 134.809C410.01 137.572 415.476 138.954 422.492 138.954ZM523.477 145.688V19.2227H533.842V76.4692C539.909 65.2839 550.192 59.6914 564.686 59.6914C575.863 59.6914 584.573 63.0357 590.807 69.7244C597.099 76.4128 600.246 85.7714 600.246 97.7995V145.688H589.88V99.9071C589.88 90.1835 587.437 82.6237 582.551 77.2279C577.662 71.7759 570.864 69.0499 562.156 69.0499C553.392 69.0499 546.484 71.804 541.428 77.312C536.372 82.8204 533.842 90.3522 533.842 99.9071V145.688H523.477Z" fill="#F3F3F3"/>
</g>
<path d="M29.4904 210.955C22.5439 210.955 17.4528 205.603 17.4528 198.998V198.912C17.4528 192.307 22.5008 186.868 29.5767 186.868C33.9344 186.868 36.6525 188.336 38.8098 190.753L34.7973 195.07C33.3303 193.516 31.8634 192.523 29.5336 192.523C26.2544 192.523 23.9246 195.415 23.9246 198.826V198.912C23.9246 202.452 26.2113 205.301 29.7924 205.301C31.9928 205.301 33.5029 204.351 35.0993 202.84L38.9392 206.725C36.6957 209.186 34.107 210.955 29.4904 210.955ZM60.4531 210.955C53.5067 210.955 48.3724 206.078 48.3724 198.998V198.912C48.3724 192.307 53.0752 186.868 59.8059 186.868C67.5289 186.868 71.0668 192.869 71.0668 199.43C71.0668 199.948 71.0237 200.552 70.9805 201.157H54.8873C55.5345 204.135 57.6055 205.689 60.5394 205.689C62.7398 205.689 64.3362 204.998 66.1483 203.315L69.9019 206.639C67.7446 209.315 64.6382 210.955 60.4531 210.955ZM54.8011 197.056H64.6813C64.293 194.12 62.5672 192.135 59.8059 192.135C57.0878 192.135 55.3188 194.077 54.8011 197.056ZM82.8576 210.437V187.3H89.4157V190.581C90.9258 188.638 92.8673 186.868 96.1895 186.868C101.151 186.868 104.042 190.149 104.042 195.459V210.437H97.4839V197.531C97.4839 194.423 96.017 192.825 93.5145 192.825C91.0121 192.825 89.4157 194.423 89.4157 197.531V210.437H82.8576ZM124.452 210.826C120.439 210.826 117.721 209.229 117.721 203.876V192.912H114.96V187.3H117.721V181.386H124.279V187.3H129.716V192.912H124.279V202.797C124.279 204.308 124.926 205.042 126.393 205.042C127.601 205.042 128.68 204.739 129.629 204.221V209.488C128.249 210.308 126.652 210.826 124.452 210.826ZM141.868 210.437V186.982H149.246V190.138C151.77 188.099 155.556 186.399 159.487 186.399V193.149C159.002 193.052 158.225 193.004 156.866 193.004C153.614 193.004 150.605 194.072 149.246 195.432V210.437H141.868ZM181.982 210.955C175.036 210.955 169.901 206.078 169.901 198.998V198.912C169.901 192.307 174.604 186.868 181.335 186.868C189.058 186.868 192.596 192.869 192.596 199.43C192.596 199.948 192.553 200.552 192.51 201.157H176.416C177.064 204.135 179.134 205.689 182.068 205.689C184.269 205.689 185.865 204.998 187.677 203.315L191.431 206.639C189.274 209.315 186.167 210.955 181.982 210.955ZM176.33 197.056H186.21C185.822 194.12 184.096 192.135 181.335 192.135C178.617 192.135 176.848 194.077 176.33 197.056ZM235.572 210.955C228.41 210.955 223.103 205.646 223.103 198.998V198.912C223.103 192.264 228.453 186.868 235.659 186.868C242.821 186.868 248.128 192.178 248.128 198.826V198.912C248.128 205.56 242.778 210.955 235.572 210.955ZM235.659 205.301C239.412 205.301 241.656 202.408 241.656 198.998V198.912C241.656 195.502 239.196 192.523 235.572 192.523C231.819 192.523 229.575 195.415 229.575 198.826V198.912C229.575 202.322 232.034 205.301 235.659 205.301ZM260.901 210.437V192.912H258.183V187.516H260.901V186.048C260.901 183.501 261.548 181.645 262.757 180.437C263.965 179.228 265.734 178.624 268.063 178.624C270.135 178.624 271.516 178.883 272.724 179.271V184.71C271.775 184.365 270.869 184.149 269.747 184.149C268.236 184.149 267.373 184.926 267.373 186.653V187.559H272.681V192.912H267.459V210.437H260.901ZM303.411 210.437V186.982H310.789V190.138C313.313 188.099 317.099 186.399 321.031 186.399V193.149C320.545 193.052 319.769 193.004 318.41 193.004C315.158 193.004 312.148 194.072 310.789 195.432V210.437H303.411ZM340.247 210.869C335.285 210.869 332.394 207.588 332.394 202.279V187.3H338.952V200.207C338.952 203.315 340.419 204.912 342.922 204.912C345.424 204.912 347.02 203.315 347.02 200.207V187.3H353.578V210.437H347.02V207.157C345.51 209.099 343.569 210.869 340.247 210.869ZM366.767 210.437V186.982H374.145V190.138C376.669 188.099 380.455 186.399 384.387 186.399V193.149C383.902 193.052 383.125 193.004 381.766 193.004C378.514 193.004 375.504 194.072 374.145 195.432V210.437H366.767ZM402.478 210.869C398.121 210.869 394.54 208.365 394.54 203.79V203.703C394.54 198.653 398.379 196.322 403.859 196.322C406.189 196.322 407.871 196.71 409.511 197.272V196.883C409.511 194.164 407.828 192.653 404.549 192.653C402.047 192.653 400.278 193.128 398.164 193.905L396.524 188.897C399.07 187.775 401.572 187.041 405.498 187.041C409.08 187.041 411.668 187.991 413.308 189.631C415.034 191.358 415.81 193.905 415.81 197.013V210.437H409.468V207.934C407.871 209.704 405.671 210.869 402.478 210.869ZM404.463 206.337C407.526 206.337 409.597 204.653 409.597 202.279V201.113C408.475 200.595 407.009 200.25 405.412 200.25C402.608 200.25 400.882 201.372 400.882 203.444V203.531C400.882 205.301 402.349 206.337 404.463 206.337ZM435.778 210.696C433.939 210.696 432.429 210.481 431.248 210.049C430.07 209.588 429.193 208.768 428.616 207.588C428.072 206.38 427.796 204.639 427.796 202.365V180.221H434.441V201.372C434.441 202.783 434.63 203.776 435.002 204.351C435.406 204.898 436.226 205.171 437.461 205.171C437.806 205.171 438.095 205.171 438.324 205.171C438.556 205.142 438.785 205.114 439.014 205.085V210.567C438.728 210.596 438.41 210.61 438.065 210.61C437.75 210.639 437.391 210.653 436.986 210.653C436.614 210.682 436.21 210.696 435.778 210.696ZM476.108 210.869C471.751 210.869 468.17 208.365 468.17 203.79V203.703C468.17 198.653 472.01 196.322 477.489 196.322C479.819 196.322 481.502 196.71 483.141 197.272V196.883C483.141 194.164 481.458 192.653 478.179 192.653C475.677 192.653 473.908 193.128 471.794 193.905L470.154 188.897C472.7 187.775 475.202 187.041 479.129 187.041C482.71 187.041 485.298 187.991 486.938 189.631C488.664 191.358 489.44 193.905 489.44 197.013V210.437H483.098V207.934C481.502 209.704 479.301 210.869 476.108 210.869ZM478.093 206.337C481.156 206.337 483.227 204.653 483.227 202.279V201.113C482.106 200.595 480.639 200.25 479.042 200.25C476.238 200.25 474.512 201.372 474.512 203.444V203.531C474.512 205.301 475.979 206.337 478.093 206.337ZM509.314 220.808C506.027 220.808 503.514 220.231 501.772 219.079C500.043 217.941 499.18 216.339 499.18 214.274C499.18 212.854 499.623 211.667 500.507 210.712C501.392 209.756 502.691 209.075 504.406 208.667C503.746 208.386 503.169 207.929 502.678 207.297C502.187 206.651 501.942 205.969 501.942 205.252C501.942 204.353 502.201 203.609 502.721 203.018C503.239 202.414 503.991 201.824 504.975 201.248C503.738 200.714 502.756 199.857 502.025 198.676C501.308 197.496 500.949 196.105 500.949 194.503C500.949 192.789 501.321 191.334 502.066 190.14C502.826 188.931 503.921 188.011 505.353 187.379C506.801 186.747 508.556 186.43 510.619 186.43C511.056 186.43 511.56 186.458 512.137 186.515C512.712 186.571 513.24 186.634 513.718 186.704C514.208 186.775 514.537 186.831 514.707 186.873H522.924V190.14L519.238 191.088C519.575 191.608 519.825 192.163 519.995 192.753C520.163 193.344 520.249 193.969 520.249 194.629C520.249 197.159 519.362 199.133 517.593 200.552C515.837 201.957 513.394 202.66 510.261 202.66C509.516 202.618 508.815 202.561 508.155 202.491C507.831 202.744 507.586 203.011 507.418 203.292C507.249 203.573 507.165 203.868 507.165 204.178C507.165 204.487 507.292 204.747 507.545 204.957C507.812 205.154 508.203 205.309 508.724 205.421C509.258 205.519 509.918 205.569 510.706 205.569H514.707C517.291 205.569 519.256 206.124 520.605 207.234C521.969 208.344 522.649 209.974 522.649 212.124C522.649 214.878 521.497 217.014 519.194 218.531C516.905 220.049 513.612 220.808 509.314 220.808ZM509.587 216.613C511.118 216.613 512.431 216.466 513.526 216.171C514.637 215.889 515.487 215.482 516.077 214.948C516.665 214.428 516.962 213.803 516.962 213.072C516.962 212.482 516.786 212.011 516.436 211.66C516.099 211.323 515.578 211.084 514.875 210.943C514.187 210.803 513.302 210.733 512.221 210.733H508.893C508.106 210.733 507.397 210.859 506.766 211.112C506.146 211.365 505.655 211.716 505.291 212.166C504.924 212.63 504.743 213.163 504.743 213.768C504.743 214.653 505.164 215.349 506.005 215.854C506.863 216.36 508.058 216.613 509.587 216.613ZM510.619 198.74C511.827 198.74 512.712 198.367 513.275 197.622C513.836 196.878 514.117 195.866 514.117 194.587C514.117 193.168 513.823 192.107 513.232 191.404C512.655 190.688 511.787 190.33 510.619 190.33C509.441 190.33 508.556 190.688 507.966 191.404C507.375 192.107 507.081 193.168 507.081 194.587C507.081 195.866 507.37 196.878 507.944 197.622C508.535 198.367 509.427 198.74 510.619 198.74ZM533.416 184.753V178.926H540.319V184.753H533.416ZM533.589 210.437V187.3H540.147V210.437H533.589ZM553.209 210.437V187.3H559.767V190.581C561.277 188.638 563.219 186.868 566.541 186.868C571.503 186.868 574.393 190.149 574.393 195.459V210.437H567.835V197.531C567.835 194.423 566.368 192.825 563.866 192.825C561.364 192.825 559.767 194.423 559.767 197.531V210.437H553.209ZM594.321 220.808C591.034 220.808 588.521 220.231 586.779 219.079C585.05 217.941 584.187 216.339 584.187 214.274C584.187 212.854 584.63 211.667 585.514 210.712C586.399 209.756 587.698 209.075 589.411 208.667C588.753 208.386 588.176 207.929 587.685 207.297C587.191 206.651 586.946 205.969 586.946 205.252C586.946 204.353 587.208 203.609 587.725 203.018C588.246 202.414 588.998 201.824 589.98 201.248C588.745 200.714 587.76 199.857 587.032 198.676C586.315 197.496 585.956 196.105 585.956 194.503C585.956 192.789 586.329 191.334 587.073 190.14C587.831 188.931 588.928 188.011 590.36 187.379C591.805 186.747 593.561 186.43 595.626 186.43C596.06 186.43 596.567 186.458 597.145 186.515C597.719 186.571 598.245 186.634 598.722 186.704C599.215 186.775 599.544 186.831 599.714 186.873H607.931V190.14L604.242 191.088C604.579 191.608 604.832 192.163 605.002 192.753C605.169 193.344 605.253 193.969 605.253 194.629C605.253 197.159 604.369 199.133 602.6 200.552C600.844 201.957 598.401 202.66 595.268 202.66C594.523 202.618 593.822 202.561 593.162 202.491C592.838 202.744 592.593 203.011 592.425 203.292C592.256 203.573 592.172 203.868 592.172 204.178C592.172 204.487 592.299 204.747 592.549 204.957C592.816 205.154 593.21 205.309 593.731 205.421C594.265 205.519 594.925 205.569 595.71 205.569H599.714C602.298 205.569 604.263 206.124 605.612 207.234C606.974 208.344 607.656 209.974 607.656 212.124C607.656 214.878 606.504 217.014 604.201 218.531C601.912 220.049 598.617 220.808 594.321 220.808ZM594.593 216.613C596.125 216.613 597.438 216.466 598.533 216.171C599.644 215.889 600.494 215.482 601.081 214.948C601.672 214.428 601.969 213.803 601.969 213.072C601.969 212.482 601.791 212.011 601.44 211.66C601.103 211.323 600.585 211.084 599.882 210.943C599.194 210.803 598.309 210.733 597.228 210.733H593.898C593.113 210.733 592.404 210.859 591.77 211.112C591.153 211.365 590.662 211.716 590.295 212.166C589.931 212.63 589.748 213.163 589.748 213.768C589.748 214.653 590.171 215.349 591.012 215.854C591.87 216.36 593.065 216.613 594.593 216.613ZM595.626 198.74C596.834 198.74 597.719 198.367 598.28 197.622C598.843 196.878 599.124 195.866 599.124 194.587C599.124 193.168 598.83 192.107 598.239 191.404C597.662 190.688 596.791 190.33 595.626 190.33C594.448 190.33 593.561 190.688 592.973 191.404C592.382 192.107 592.088 193.168 592.088 194.587C592.088 195.866 592.374 196.878 592.951 197.622C593.542 198.367 594.432 198.74 595.626 198.74ZM224.738 254.208L221.243 250.669C218.784 252.698 215.893 254.036 212.399 254.036C206.617 254.036 202.26 250.669 202.26 245.316V245.23C202.26 241.388 204.331 238.668 208.127 236.942C206.66 234.87 206.013 232.97 206.013 230.898V230.812C206.013 226.668 209.335 222.869 215.16 222.869C220.294 222.869 223.66 226.237 223.66 230.467V230.553C223.66 234.611 221.071 236.985 217.317 238.453L221.33 242.467C222.322 240.913 223.314 239.143 224.264 237.287L229.139 239.963C227.974 242.079 226.68 244.323 225.17 246.352L229.614 250.798L224.738 254.208ZM213.866 234.956C216.497 233.963 217.878 232.841 217.878 230.942V230.855C217.878 229.129 216.713 228.049 215.031 228.049C213.262 228.049 212.097 229.301 212.097 231.114V231.201C212.097 232.539 212.614 233.532 213.866 234.956ZM213.175 248.597C214.685 248.597 216.152 247.949 217.533 246.87L211.752 240.999C209.767 242.035 208.947 243.503 208.947 244.971V245.057C208.947 247.172 210.716 248.597 213.175 248.597ZM260.51 253.604V222.092H267.068V233.747C268.578 231.805 270.518 230.035 273.841 230.035C278.802 230.035 281.693 233.316 281.693 238.625V253.604H275.135V240.697C275.135 237.589 273.668 235.992 271.166 235.992C268.664 235.992 267.068 237.589 267.068 240.697V253.604H260.51ZM305.253 254.122C298.307 254.122 293.172 249.244 293.172 242.165V242.079C293.172 235.474 297.875 230.035 304.606 230.035C312.329 230.035 315.867 236.035 315.867 242.597C315.867 243.115 315.824 243.719 315.78 244.323H299.687C300.334 247.302 302.405 248.856 305.339 248.856C307.54 248.856 309.136 248.165 310.948 246.482L314.702 249.805C312.545 252.482 309.438 254.122 305.253 254.122ZM299.601 240.222H309.481C309.093 237.287 307.367 235.302 304.606 235.302C301.888 235.302 300.119 237.244 299.601 240.222ZM334.217 254.036C329.859 254.036 326.278 251.532 326.278 246.957V246.87C326.278 241.82 330.118 239.489 335.598 239.489C337.928 239.489 339.61 239.877 341.25 240.438V240.05C341.25 237.33 339.567 235.819 336.288 235.819C333.786 235.819 332.017 236.294 329.902 237.071L328.263 232.064C330.809 230.942 333.311 230.208 337.237 230.208C340.818 230.208 343.407 231.157 345.046 232.798C346.772 234.524 347.549 237.071 347.549 240.179V253.604H341.207V251.1C339.61 252.87 337.41 254.036 334.217 254.036ZM336.202 249.503C339.265 249.503 341.336 247.82 341.336 245.446V244.28C340.214 243.762 338.747 243.417 337.151 243.417C334.346 243.417 332.621 244.539 332.621 246.611V246.697C332.621 248.467 334.088 249.503 336.202 249.503ZM367.514 253.863C365.675 253.863 364.165 253.647 362.984 253.216C361.806 252.755 360.929 251.935 360.352 250.755C359.808 249.546 359.533 247.806 359.533 245.532V223.387H366.177V244.539C366.177 245.949 366.366 246.942 366.738 247.518C367.142 248.065 367.962 248.338 369.197 248.338C369.542 248.338 369.831 248.338 370.06 248.338C370.292 248.309 370.521 248.28 370.75 248.251V253.734C370.464 253.763 370.146 253.777 369.801 253.777C369.486 253.806 369.127 253.82 368.722 253.82C368.35 253.849 367.946 253.863 367.514 253.863ZM389.26 253.993C385.247 253.993 382.529 252.395 382.529 247.043V236.078H379.768V230.467H382.529V224.553H389.087V230.467H394.523V236.078H389.087V245.964C389.087 247.474 389.734 248.208 391.201 248.208C392.409 248.208 393.488 247.906 394.437 247.388V252.654C393.056 253.475 391.46 253.993 389.26 253.993ZM406.259 253.604V222.092H412.817V233.747C414.327 231.805 416.269 230.035 419.591 230.035C424.552 230.035 427.443 233.316 427.443 238.625V253.604H420.885V240.697C420.885 237.589 419.418 235.992 416.916 235.992C414.413 235.992 412.817 237.589 412.817 240.697V253.604H406.259Z" fill="#F7F7F7"/>
<defs>
<filter id="filter0_d_991_1862" x="20.4634" y="19.2227" width="583.782" height="136.537" filterUnits="userSpaceOnUse" color-interpolation-filters="sRGB">
<feFlood flood-opacity="0" result="BackgroundImageFix"/>
<feColorMatrix in="SourceAlpha" type="matrix" values="0 0 0 0 0 0 0 0 0 0 0 0 0 0 0 0 0 0 127 0" result="hardAlpha"/>
<feOffset dy="4"/>
<feGaussianBlur stdDeviation="2"/>
<feComposite in2="hardAlpha" operator="out"/>
<feColorMatrix type="matrix" values="0 0 0 0 0 0 0 0 0 0 0 0 0 0 0 0 0 0 0.25 0"/>
<feBlend mode="normal" in2="BackgroundImageFix" result="effect1_dropShadow_991_1862"/>
<feBlend mode="normal" in="SourceGraphic" in2="effect1_dropShadow_991_1862" result="shape"/>
</filter>
</defs>
</svg>
