<svg width="96" height="98" viewBox="0 0 96 98" fill="none" xmlns="http://www.w3.org/2000/svg">
<g clip-path="url(#clip0_786_1772)">
<path d="M60.6908 17.2043C60.8153 17.2333 60.9396 17.2622 61.0678 17.2923C61.6157 17.4208 62.1633 17.5503 62.709 17.6882C63.3465 17.8485 63.9758 17.9861 64.6261 18.0842C65.2508 18.1837 65.7925 18.3401 66.3655 18.6053C66.4508 18.6441 66.5363 18.6831 66.6241 18.7233C67.8969 19.3245 68.8031 20.1105 69.6873 21.1897C70.1079 21.6997 70.5506 22.1455 71.0484 22.5798C72.5364 23.9061 73.2917 25.5397 73.9133 27.4046C73.9301 27.7621 73.94 28.1167 73.9434 28.4744C73.9445 28.5817 73.9457 28.6892 73.9471 28.7998C73.9771 32.1169 73.8272 35.3093 72.78 38.4864C72.7476 38.5876 72.7154 38.6886 72.6821 38.7929C71.627 42.0779 70.0063 44.3363 67.6168 46.7977C67.5029 46.9155 67.3887 47.0334 67.2712 47.1548C66.697 47.7379 66.1031 48.287 65.4762 48.8126C65.4082 48.8705 65.3402 48.9281 65.2701 48.9878C64.0167 50.05 62.7137 50.9664 61.3205 51.8349C57.8211 54.0236 55.7573 57.2501 53.7649 60.7759C53.6767 60.9312 53.6767 60.9312 53.5866 61.0896C53.2727 61.6434 52.9636 62.1996 52.6597 62.7592C52.5543 62.953 52.4483 63.1462 52.342 63.3395C48.396 70.522 46.456 77.9882 47.415 86.1442C47.4265 86.2429 47.4382 86.3417 47.4501 86.4433C47.4719 86.6272 47.4943 86.8112 47.5176 86.9952C47.689 88.4128 47.689 88.4128 47.4555 88.8897C46.9489 89.4718 46.9489 89.4718 46.4609 89.543C45.9158 89.2817 45.6054 88.8875 45.3275 88.3546C45.2114 87.7995 45.1846 87.2683 45.1813 86.7022C45.1807 86.6155 45.1802 86.5291 45.1795 86.4399C45.1776 86.1542 45.1768 85.8687 45.1761 85.5832C45.1758 85.484 45.1754 85.385 45.1751 85.2827C45.173 84.7554 45.172 84.2279 45.1713 83.7005C45.1708 83.2717 45.1691 82.8427 45.1662 82.4139C45.143 78.8903 45.1937 75.3915 46.209 71.9837C46.2492 71.8487 46.2892 71.7136 46.3305 71.5746C46.7616 70.2036 47.3515 68.9213 47.9642 67.6234C48.0714 67.3945 48.1785 67.1656 48.2857 66.9367C48.5507 66.3713 48.8171 65.8067 49.0844 65.2422C49.2201 64.9555 49.3555 64.6686 49.4907 64.3816C51.1851 60.7888 53.0043 57.3175 55.5278 54.2276C55.5865 54.1555 55.6452 54.0833 55.7057 54.009C57.1747 52.2142 58.843 50.8479 60.7607 49.5604C62.0972 48.6607 63.3691 47.718 64.5945 46.6717C64.7078 46.5753 64.821 46.4786 64.9375 46.3791C65.2492 46.1049 65.5529 45.8243 65.8539 45.5385C65.9211 45.4747 65.9882 45.411 66.0574 45.3453C68.0592 43.4321 69.3423 41.5634 70.2692 38.9272C70.3237 38.7732 70.3781 38.6193 70.4341 38.4606C71.7097 34.7846 72.9722 29.9687 71.2767 26.2633C70.7435 25.2647 70.0224 24.4507 69.2539 23.6266C69.1763 23.5402 69.0984 23.4535 69.0183 23.3645C66.6165 20.8069 63.5345 19.7711 60.1355 19.4301C59.5822 19.3711 59.0837 19.2545 58.5501 19.0932C56.6242 18.7143 54.5668 18.376 52.6885 19.0844C51.4571 19.4661 50.2169 19.5023 48.9393 19.5149C45.5447 19.5549 42.3068 20.1931 39.0036 20.9339C38.8509 20.9681 38.6981 21.0024 38.5407 21.0376C38.2458 21.1037 37.951 21.1705 37.6562 21.238C36.5402 21.4907 36.5402 21.4907 35.9893 21.5232C35.4202 21.6273 35.0674 21.8459 34.5854 22.1546C33.9882 22.5288 33.3543 22.8347 32.7268 23.1544C28.9729 25.0905 25.3896 27.3924 22.629 30.6472C22.1127 31.2537 21.5404 31.8052 20.972 32.3624C16.3141 36.9574 14.224 43.0781 12.3343 49.1904C12.2689 49.3866 12.2689 49.3866 12.2021 49.5866C12.064 50.1468 12.0462 50.6497 12.0479 51.2238C12.0473 51.3359 12.0466 51.4481 12.0459 51.5638C12.0442 51.9339 12.0443 52.304 12.0446 52.6742C12.0441 52.9351 12.0436 53.1962 12.043 53.4573C12.042 54.0058 12.0421 54.5543 12.0427 55.103C12.0433 55.6582 12.0425 56.2137 12.0401 56.769C12.0181 61.3043 12.0181 61.3043 12.4603 65.8131C12.4749 65.9109 12.4894 66.0088 12.5045 66.1095C12.5849 66.6264 12.6847 67.1366 12.7987 67.647C12.8474 67.8714 12.8474 67.8714 12.8971 68.1003C13.5841 71.1816 14.5964 74.1402 15.6584 77.1075C15.8459 77.6316 16.0311 78.1564 16.2124 78.6826C16.6275 79.8864 17.0596 81.0711 17.5683 82.2391C17.6317 82.3856 17.6952 82.5323 17.7605 82.6833C19.9861 87.8104 19.9861 87.8104 23.2665 92.2899C23.9925 93.0722 24.6231 93.9164 25.2491 94.7797C25.4233 95.0186 25.6007 95.2548 25.7787 95.4908C25.8833 95.6331 25.9878 95.7757 26.0919 95.9183C26.2293 96.1036 26.2293 96.1036 26.3694 96.2926C26.6067 96.7472 26.6191 97.041 26.5643 97.5475C26.3124 97.9252 26.3124 97.9252 26.0665 97.9842C25.971 97.9856 25.8755 97.9868 25.7771 97.9881C25.683 97.992 25.5889 97.9959 25.4918 98C24.7237 97.8164 24.2316 97.0948 23.7781 96.4927C23.6567 96.3347 23.5352 96.1765 23.4136 96.0186C23.3517 95.9378 23.2896 95.857 23.2258 95.7738C23.0454 95.5417 22.8612 95.3133 22.6748 95.0859C18.4062 89.8779 15.7089 83.9484 13.4677 77.6506C13.4331 77.5538 13.3985 77.457 13.3629 77.3573C12.818 75.8172 12.3784 74.2484 11.9499 72.6726C11.8257 72.2177 11.6993 71.7635 11.5729 71.3092C11.0139 69.2819 10.5443 67.2572 10.1936 65.1836C10.1687 65.0462 10.1687 65.0462 10.1434 64.9062C9.81578 63.0711 9.72307 60.948 10.0044 59.1059C10.0658 58.6488 10.0858 58.2129 10.0895 57.7518C10.0903 57.6684 10.0912 57.5848 10.092 57.4989C10.0938 57.3191 10.0953 57.1393 10.0966 56.9595C10.0987 56.6733 10.1016 56.3871 10.1047 56.1009C10.1136 55.2878 10.1212 54.4746 10.1277 53.6613C10.1317 53.1623 10.1369 52.6631 10.1428 52.164C10.1448 51.9756 10.1464 51.7872 10.1475 51.5987C10.1543 50.4403 10.2315 49.3235 10.4454 48.1829C10.463 48.0882 10.4805 47.9934 10.4986 47.8955C10.9484 45.6136 11.8836 43.4988 12.7672 41.3592C12.8066 41.2634 12.8459 41.1676 12.8865 41.069C13.9954 38.3768 15.2455 35.8197 17.1197 33.5752C17.1794 33.5031 17.2391 33.4311 17.3006 33.3568C18.6387 31.7493 20.0701 30.232 21.5572 28.7623C21.9227 28.3998 22.2747 28.0356 22.6054 27.6407C24.4859 25.4481 26.9831 23.9181 29.4606 22.4932C29.5812 22.4237 29.7016 22.3542 29.8258 22.2825C30.5609 21.8591 31.299 21.4415 32.0414 21.031C32.2325 20.925 32.4234 20.8186 32.6135 20.7109C34.5906 19.5953 36.7417 19.1943 38.9637 18.8667C40.0316 18.7092 41.0533 18.5015 42.0849 18.1802C43.2424 17.8267 44.3294 17.7714 45.5348 17.7585C46.9955 17.7322 48.3792 17.4557 49.8026 17.1454C53.0791 16.4368 57.4217 16.4228 60.6908 17.2043Z" fill="#7B458F"/>
<path d="M49.9415 12.214C50.0692 12.2132 50.1969 12.2123 50.3285 12.2114C50.7351 12.2092 51.1415 12.2084 51.548 12.2081C51.6875 12.2079 51.8269 12.2078 51.9705 12.2076C53.9463 12.2081 55.8762 12.2671 57.8326 12.5655C58.1793 12.617 58.526 12.6596 58.8742 12.6998C63.3718 13.2308 67.9559 14.4174 71.6499 17.1481C71.7516 17.2222 71.8536 17.2961 71.9586 17.3724C73.3338 18.4191 74.6584 19.6894 75.5521 21.1758C75.5954 21.2455 75.6386 21.315 75.6831 21.3867C76.9405 23.4249 77.6714 25.6451 78.1957 27.9724C78.2269 28.1102 78.2579 28.2481 78.2901 28.3903C78.9359 31.9683 78.2081 35.1801 76.9411 38.494C76.726 39.0589 76.5277 39.6276 76.3374 40.2012C75.1983 43.6195 73.3472 46.8793 70.5684 49.2323C68.98 50.6067 67.414 52.0765 66.053 53.6787C65.8505 53.9098 65.6378 54.1252 65.4187 54.3405C65.0388 54.7143 64.6878 55.1057 64.3403 55.5095C64.0659 55.8232 63.7824 56.1275 63.4989 56.4329C62.8324 57.1638 62.2244 57.9327 61.6219 58.7167C61.4632 58.9217 61.3012 59.124 61.139 59.3263C59.7582 61.0647 58.6549 62.983 57.5672 64.9133C57.2992 65.3877 57.0244 65.8572 56.7441 66.3243C54.0174 70.8793 51.8572 75.6618 52.8934 81.0862C52.9794 81.4068 53.0686 81.7267 53.1609 82.0458C53.3973 82.8975 53.5703 83.73 53.3968 84.6103C53.0586 84.9721 53.0586 84.9721 52.6415 85.1137C52.1344 85.1264 51.8294 84.8855 51.4368 84.5777C50.8018 83.8039 50.8121 82.9483 50.7928 81.9907C50.7889 81.8441 50.785 81.6976 50.7811 81.5465C50.7716 81.1433 50.7643 80.7401 50.7578 80.3368C50.7532 80.0734 50.7473 79.8101 50.7409 79.5468C50.6091 73.8467 52.2434 69.3316 55.2423 64.5194C55.5665 63.9992 55.8865 63.4767 56.2042 62.9526C57.4054 60.9731 58.6425 59.114 60.1584 57.3619C60.4014 57.0775 60.636 56.7868 60.8711 56.4958C61.0649 56.2596 61.259 56.0236 61.4533 55.7878C61.5059 55.7235 61.5587 55.6591 61.6128 55.5928C62.6108 54.3803 63.7068 53.2813 64.8266 52.183C65.6889 51.3347 66.4514 50.4871 67.1175 49.4741C67.5371 48.8803 68.0658 48.4386 68.6286 47.9844C68.7446 47.8903 68.8606 47.7962 68.9802 47.6992C69.0979 47.6039 69.2154 47.5085 69.3367 47.4101C73.1681 44.277 75.4008 38.5223 75.9219 33.6601C75.9519 33.3524 75.9792 33.0445 76.006 32.7364C76.0557 32.2517 76.0557 32.2517 76.1815 31.8741C76.2109 31.6162 76.2109 31.6162 76.2131 31.3391C76.2178 31.2018 76.2178 31.2018 76.2229 31.0619C76.1958 30.7186 76.1958 30.7186 75.9938 30.3534C75.7107 29.7315 75.759 29.0921 75.7567 28.4207C75.6956 25.881 74.7756 23.9907 73.2941 21.9545C73.1859 21.8057 73.1859 21.8057 73.0756 21.6538C72.3478 20.6785 71.6256 19.8772 70.535 19.3218C70.2519 19.1543 70.0635 18.9774 69.8403 18.7372C68.4624 17.2806 66.3802 16.6094 64.5143 16.0101C64.239 15.9212 63.9646 15.8295 63.6902 15.7377C63.5089 15.6787 63.3274 15.6198 63.1459 15.5612C63.0672 15.5345 62.9883 15.5079 62.9072 15.4805C61.4296 15.0154 59.859 14.971 58.3235 14.974C58.1451 14.9734 57.9668 14.9728 57.7885 14.972C57.3102 14.9704 56.8318 14.9703 56.3535 14.9706C55.951 14.9707 55.5485 14.9701 55.146 14.9695C54.1945 14.9681 53.2428 14.9681 52.2913 14.9688C51.317 14.9696 50.343 14.968 49.3689 14.9653C48.5259 14.9631 47.6831 14.9624 46.8401 14.9628C46.3396 14.963 45.8391 14.9627 45.3386 14.9609C43.2159 14.954 41.1395 14.9836 39.0463 15.3861C38.9056 15.4124 38.7648 15.4387 38.6198 15.4658C38.3136 15.5259 38.0117 15.5942 37.7088 15.6693C37.6016 15.6955 37.4942 15.7216 37.3838 15.7485C35.9565 16.1109 34.5723 16.6149 33.2478 17.2583C32.4474 17.6431 31.6182 17.9187 30.7774 18.2022C27.2246 19.4082 23.9151 21.0953 21.171 23.6931C20.9987 23.8433 20.8255 23.9927 20.6518 24.1414C19.9824 24.726 19.358 25.3444 18.7817 26.021C18.2042 26.6848 17.5712 27.2921 16.9434 27.9078C15.7898 29.0422 14.6649 30.1591 13.744 31.4965C13.6847 31.5807 13.6254 31.665 13.5643 31.752C10.5466 36.0584 8.28991 41.0868 7.0408 46.1909C6.99422 46.3808 6.99422 46.3808 6.94671 46.5744C6.57462 48.1555 6.40506 49.6918 6.42268 51.3154C6.42368 51.5687 6.42468 51.8222 6.42565 52.0755C6.42728 52.4247 6.43008 52.7742 6.43289 53.1235C6.43773 53.7386 6.44127 54.3537 6.44393 54.9688C6.44548 55.2949 6.44768 55.6211 6.45065 55.9471C6.45465 56.666 6.43815 57.3453 6.31696 58.0533C6.07735 61.8441 7.02616 65.2834 8.07931 68.8775C8.10735 68.9732 8.13536 69.069 8.16423 69.1676C8.92955 71.7813 9.88233 74.1762 11.0612 76.6318C11.2138 76.9502 11.3651 77.2691 11.5163 77.5882C11.6255 77.8171 11.7366 78.045 11.8477 78.2728C11.9144 78.4134 11.9812 78.5541 12.05 78.6991C12.1098 78.823 12.1695 78.9468 12.2311 79.0743C12.3811 79.5138 12.3906 79.8697 12.3593 80.331C12.1446 80.5456 11.8906 80.5187 11.5961 80.5433C11.1317 80.539 10.9178 80.5116 10.5507 80.2203C9.97356 79.5246 9.6205 78.7915 9.33813 77.9395C8.97299 76.8384 8.54175 75.8025 8.04785 74.7536C7.32386 73.2067 6.73534 71.6282 6.19108 70.0103C6.15427 69.9015 6.11745 69.7924 6.07952 69.6804C5.70962 68.5768 5.38183 67.4633 5.08962 66.3367C5.05207 66.1956 5.05207 66.1956 5.01377 66.0518C4.43479 63.7336 4.51028 61.3638 4.50667 58.9916C4.50546 58.5184 4.50121 58.0453 4.49659 57.5721C4.49724 57.4299 4.49786 57.2878 4.49853 57.1413C4.48752 56.2384 4.33438 55.4792 4.03835 54.6255C3.79097 53.8646 3.91747 53.2969 4.10616 52.5468C4.31955 51.6284 4.33872 50.7345 4.35792 49.7937C4.53881 43.1668 7.84762 35.7875 11.8558 30.6155C12.0051 30.4215 12.1544 30.2277 12.3037 30.0338C13.1038 28.998 13.9117 27.9698 14.7511 26.9654C14.8525 26.8406 14.9539 26.7158 15.0584 26.5873C16.7377 24.5487 18.6462 22.5939 20.7934 21.05C20.9832 20.9038 20.9832 20.9038 21.1769 20.755C23.503 18.9874 26.1664 17.6483 28.8498 16.5189C28.9838 16.4625 29.1176 16.4061 29.2555 16.348C31.5787 15.3814 33.9543 14.5657 36.3624 13.8382C36.5897 13.7696 36.8163 13.6988 37.0427 13.6273C38.1191 13.3 39.1629 13.1222 40.2806 13.009C40.4539 12.9904 40.6271 12.9717 40.8004 12.9528C41.1605 12.9139 41.521 12.876 41.8814 12.839C42.337 12.7921 42.7925 12.7436 43.2479 12.6943C43.6906 12.6465 44.1335 12.5996 44.5763 12.5528C44.7366 12.5357 44.8969 12.5187 45.0621 12.5011C46.6861 12.3339 48.3083 12.2218 49.9415 12.214Z" fill="#7B458F"/>
<path d="M54.7087 21.8004C55.1581 21.8684 55.6079 21.9333 56.0579 21.9981C63.0335 23.0197 63.0335 23.0197 65.049 24.7974C65.1264 24.8613 65.2039 24.9251 65.2836 24.9908C66.8226 26.3745 68.1768 28.7898 68.3344 30.8449C68.4039 32.2215 68.2849 33.5101 67.937 34.8475C67.9155 34.9321 67.8939 35.0165 67.8717 35.1035C66.9658 38.5989 65.1138 41.5171 62.6634 44.1439C62.4828 44.3506 62.3023 44.5574 62.1219 44.7643C61.469 45.4886 60.7567 46.1378 60.0265 46.7821C59.9252 46.872 59.9252 46.872 59.8219 46.9637C58.7168 47.9413 57.5631 48.8449 56.3853 49.7328C56.0172 50.011 55.6517 50.2925 55.2864 50.5744C54.8905 50.88 54.4941 51.1852 54.0955 51.4871C53.1147 52.2325 52.1698 53.0126 51.2371 53.8173C51.1485 53.893 51.06 53.9688 50.9687 54.0468C49.8254 55.0348 48.6754 56.0334 47.7212 57.2091C47.6082 57.3427 47.4953 57.4765 47.3823 57.6101C45.8516 59.4438 44.7248 61.3565 43.9543 63.6161C43.9005 63.7717 43.8466 63.9274 43.7913 64.0878C43.6054 64.6259 43.4224 65.1651 43.2401 65.7046C43.2107 65.7914 43.1812 65.8782 43.1509 65.9676C42.7275 67.2199 42.3357 68.4752 42.0708 69.7718C42.0479 69.8818 42.0251 69.9917 42.0016 70.1049C41.4222 73.037 41.4963 76.0004 41.5121 78.9755C41.5141 79.5216 41.5129 80.0679 41.5116 80.6142C41.5107 81.1454 41.5117 81.6767 41.5133 82.2081C41.5138 82.4594 41.5139 82.7105 41.5134 82.9617C41.5117 84.5275 41.5723 85.9143 42.2199 87.3673C42.6105 88.2987 42.5728 89.3172 42.1963 90.2488C41.7904 90.5198 41.6632 90.5764 41.1918 90.5001C40.9515 90.2563 40.9515 90.2563 40.7366 89.927C40.6652 89.8206 40.5936 89.7143 40.5198 89.6046C39.9717 88.6493 39.8556 87.8629 39.7635 86.7707C39.6284 85.3387 39.4187 83.9355 39.1468 82.5233C38.9832 81.665 38.8617 80.8198 38.8061 79.9475C38.7998 79.848 38.7934 79.7484 38.7867 79.6458C38.6617 77.1679 39.0688 74.7269 39.434 72.2843C39.4479 72.1904 39.4618 72.0966 39.4761 72C40.0322 68.2534 40.9004 64.8748 42.3925 61.3861C42.4261 61.3068 42.4597 61.2276 42.4943 61.1459C43.1809 59.5299 44.0079 58.2322 45.2099 56.9578C45.3794 56.7708 45.5488 56.5838 45.7181 56.3966C46.3984 55.6491 47.1021 54.9259 47.8153 54.2098C47.9029 54.1216 47.9904 54.0336 48.0804 53.9427C48.5762 53.4481 49.085 52.977 49.6152 52.5195C49.9899 52.1926 50.3495 51.85 50.7113 51.5088C51.4477 50.8208 52.203 50.1697 52.9949 49.5459C53.079 49.479 53.1633 49.412 53.2502 49.3432C54.277 48.5278 55.3037 47.7368 56.4033 47.022C57.5938 46.2253 58.681 45.3102 59.7151 44.3213C59.8384 44.2038 59.9622 44.0868 60.0867 43.9705C63.0556 41.1939 65.9181 36.8051 66.3347 32.6657C66.3969 30.5599 65.4673 28.4566 64.1309 26.8545C61.7118 24.3839 57.6014 24.3255 54.3525 24.1536C54.2076 24.1458 54.2076 24.1458 54.0599 24.1378C48.0669 23.8215 42.8664 24.586 37.4249 27.1843C37.2613 27.262 37.2613 27.262 37.0944 27.3413C35.2207 28.2376 33.4279 29.254 31.649 30.3251C31.5028 30.4122 31.5028 30.4122 31.3535 30.5012C28.367 32.2878 25.6507 34.4987 23.4873 37.2344C23.3776 37.3614 23.3776 37.3614 23.2658 37.4908C22.5132 38.3826 21.9795 39.3529 21.4469 40.3829C21.3534 40.5615 21.26 40.74 21.1665 40.9184C19.1765 44.7339 17.4408 48.483 16.8692 52.7883C16.839 53.0136 16.8035 53.2382 16.7666 53.4626C16.698 54.0131 16.6864 54.5492 16.6857 55.1035C16.6853 55.2138 16.6849 55.3244 16.6844 55.4383C16.6838 55.672 16.6835 55.9056 16.6835 56.1392C16.6832 56.4887 16.681 56.8383 16.6786 57.1877C16.6719 59.2184 16.8455 61.1559 17.3033 63.1371C17.3708 63.4411 17.4379 63.7453 17.5048 64.0494C17.5562 64.2824 17.5562 64.2824 17.6084 64.5201C17.7819 65.3263 17.9397 66.1354 18.0959 66.9452C18.1272 67.1071 18.1586 67.269 18.1909 67.4359C18.3438 68.2334 18.49 69.0313 18.6251 69.8321C18.9967 72.0339 19.4431 74.1407 20.3856 76.1753C20.6373 76.7223 20.8524 77.2725 21.053 77.8408C21.4674 78.9753 21.9925 80.0496 22.5295 81.1303C22.6984 81.4705 22.8662 81.8115 23.0338 82.1527C23.2539 82.6008 23.4744 83.0487 23.6952 83.4965C24.5179 85.164 25.3157 86.8288 26.0142 88.553C26.7616 90.3858 27.7639 91.9155 28.9101 93.5201C30.5187 95.7779 30.5187 95.7779 30.3934 97.284C30.2441 97.5431 30.2441 97.5431 30.0167 97.6609C29.3837 97.6331 29.0294 97.2725 28.604 96.8443C28.5321 96.772 28.46 96.6995 28.3858 96.6249C27.732 95.9342 27.3307 95.1826 26.9158 94.3347C26.6122 93.72 26.252 93.1487 25.8809 92.573C24.6902 90.7134 23.6174 88.9433 22.9457 86.8256C22.606 85.7737 22.1175 84.8173 21.6038 83.8419C20.5191 81.7801 19.445 79.7316 18.5903 77.5606C18.5503 77.4593 18.5101 77.3581 18.4688 77.2538C17.971 75.9832 17.5599 74.7047 17.2144 73.3845C17.1019 72.9323 17.1019 72.9323 16.9442 72.6032C16.7799 72.1346 16.7896 71.6783 16.7774 71.1851C16.7001 69.3372 16.319 67.6837 15.7816 65.9172C14.9132 62.9965 14.7882 60.0733 14.7725 57.0497C14.7703 56.6679 14.7659 56.2862 14.7596 55.9046C14.6531 49.325 17.0923 43.1393 20.5993 37.6113C20.6869 37.4728 20.7744 37.3341 20.8646 37.1913C22.2654 35.0362 23.9904 33.1759 25.9986 31.5813C26.1127 31.4887 26.2267 31.3959 26.3444 31.3005C32.7309 26.2296 40.3007 23.1173 48.2628 21.5783C48.4035 21.5495 48.4035 21.5495 48.5472 21.5202C50.6015 21.1599 52.6718 21.4917 54.7087 21.8004Z" fill="#7B458F"/>
<path d="M49.1367 27.8086C49.4888 27.8106 49.8409 27.8086 50.1932 27.8062C51.4451 27.8047 52.5737 27.8705 53.7789 28.236C54.0184 28.3028 54.0184 28.3028 54.2628 28.371C56.4474 29.1146 58.5143 30.5516 59.5766 32.6472C60.6899 35.1216 59.5703 38.2076 58.6865 40.603C58.0547 42.1537 57.1588 43.2027 56.0081 44.3932C55.8004 44.6151 55.6053 44.8438 55.4109 45.0776C55.0612 45.49 54.6857 45.8325 54.2594 46.1641C54.1477 46.2519 54.1477 46.2519 54.0335 46.3415C53.3176 46.8857 52.5508 47.3242 51.7679 47.7638C50.8333 48.2916 49.9698 48.8871 49.1156 49.5356C49.0466 49.588 48.9774 49.6406 48.9062 49.6947C48.5612 49.9575 48.2176 50.2225 47.8751 50.4887C47.4884 50.7874 47.0976 51.0797 46.7053 51.371C41.4859 55.2941 38.1018 61.2515 36.2603 67.4322C36.2186 67.5569 36.177 67.6817 36.1343 67.8102C36.1158 68.0013 36.1037 68.1931 36.0954 68.385C36.0903 68.5035 36.0851 68.6222 36.0798 68.7445C36.0751 68.875 36.0702 69.0056 36.0652 69.14C36.06 69.2784 36.0547 69.4166 36.0493 69.559C35.9901 71.275 35.9801 72.9912 35.9779 74.7081C35.9774 75.0833 35.9755 75.4585 35.9726 75.8337C35.9565 78.0155 35.9862 80.1506 36.3863 82.3041C36.4145 82.4601 36.4428 82.616 36.472 82.7768C36.5483 83.1651 36.6331 83.5496 36.725 83.9346C36.7573 84.0708 36.7897 84.2071 36.8229 84.3473C37.4822 87.032 38.5679 89.4533 39.8065 91.9155C39.9205 92.1427 40.0323 92.3709 40.1437 92.5993C40.2017 92.7141 40.2597 92.8291 40.3194 92.9474C40.4458 93.354 40.4046 93.6173 40.2933 94.0251C40.0413 94.2772 40.0413 94.2772 39.6474 94.3481C38.9581 94.248 38.6206 93.8922 38.1508 93.3949C37.902 93.0495 37.7089 92.689 37.5205 92.3079C37.4679 92.2046 37.4154 92.1014 37.3612 91.9951C36.8246 90.9152 36.3973 89.7972 35.9927 88.6624C35.8919 88.3809 35.7879 88.1008 35.6828 87.8209C33.9677 83.2029 33.365 78.5535 33.3325 73.659C33.3308 73.4373 33.3286 73.2157 33.3257 72.9941C33.3218 72.678 33.3206 72.3622 33.3201 72.0461C33.3186 71.9518 33.317 71.8576 33.3153 71.7604C33.3179 71.1755 33.4239 70.7331 33.6473 70.1938C33.7879 69.8267 33.8379 69.4568 33.8932 69.0687C33.9188 68.9006 33.9448 68.7328 33.9711 68.5647C33.9845 68.4778 33.9979 68.3908 34.0118 68.3013C34.353 66.1515 34.9816 64.2531 35.8821 62.2649C35.9463 62.121 36.0106 61.977 36.0768 61.8287C37.2775 59.1635 38.6684 56.5784 40.5454 54.3247C40.6548 54.1899 40.764 54.0551 40.8732 53.9202C42.6674 51.7279 44.7085 50.0658 47.0505 48.4892C47.8037 47.9817 48.5424 47.4591 49.2732 46.9203C50.0092 46.3781 50.761 45.8935 51.5497 45.4317C52.5172 44.8604 53.3188 44.2041 54.109 43.4082C54.2712 43.246 54.4377 43.0881 54.6046 42.9306C56.4298 41.1883 57.2719 39.0674 57.3335 36.5591C57.3362 36.2897 57.3381 36.0203 57.3394 35.7507C57.342 35.6172 57.3447 35.4836 57.3472 35.3461C57.354 33.969 57.1135 32.6935 56.1737 31.6389C54.4414 30.1772 50.4807 29.5038 48.255 29.6525C46.7526 29.8346 45.2731 30.2879 43.8172 30.6894C43.5655 30.7579 43.3131 30.8246 43.0607 30.8905C38.654 32.0413 35.0176 34.3188 32.075 37.8136C31.768 38.1574 31.4376 38.4765 31.1085 38.7992C30.5213 39.3779 29.9845 39.9781 29.4726 40.6256C29.2933 40.8509 29.1093 41.0722 28.9202 41.2892C28.3688 41.9274 27.9069 42.5805 27.4929 43.3128C27.4517 43.3855 27.4105 43.4583 27.3679 43.5334C27.2173 43.8089 27.075 44.0876 26.9337 44.3682C26.8223 44.589 26.8223 44.589 26.7086 44.8142C26.0509 46.1478 25.5415 47.5151 25.0693 48.924C24.9486 49.2837 24.8254 49.6424 24.702 50.0014C24.0937 51.7869 23.5932 53.5738 23.3181 55.4434C23.3034 55.5363 23.2888 55.6293 23.2735 55.7249C23.0851 56.9563 23.0074 58.1786 23.0099 59.4238C23.0098 59.5579 23.0098 59.692 23.0096 59.8302C23.0094 60.1128 23.0098 60.3955 23.0103 60.6783C23.0109 61.101 23.0103 61.5238 23.0094 61.9465C23.0089 62.767 23.0162 63.5871 23.0267 64.4074C23.0277 64.5322 23.0286 64.657 23.0298 64.7856C23.0452 66.2163 23.1841 67.4774 23.6071 68.8437C23.8198 69.5439 23.9613 70.2558 24.1024 70.9734C24.1287 71.1065 24.155 71.2394 24.1819 71.3764C24.2623 71.7867 24.3417 72.197 24.4209 72.6073C25.1184 76.2332 25.1184 76.2332 26.1696 79.7676C26.2222 79.9207 26.2748 80.0736 26.3289 80.2313C26.6148 81.0514 26.9262 81.8441 27.3048 82.6259C27.4471 82.9557 27.536 83.2783 27.6191 83.6274C27.8837 84.6513 28.3841 85.4735 29.0306 86.3046C29.8526 87.3657 30.4464 88.5008 31.0498 89.6977C31.7442 91.0661 32.5353 92.3554 33.3615 93.647C33.6286 94.0659 33.8935 94.4861 34.1571 94.9072C34.2168 95.0002 34.2767 95.0929 34.3383 95.1885C34.8459 96.0014 34.8459 96.0014 34.7479 96.5458C34.4665 96.9793 34.2789 97.0422 33.7711 97.1523C33.2841 97.1226 33.0879 96.9544 32.7692 96.5945C32.0997 95.8055 31.5997 94.9178 31.085 94.0251C30.9798 93.8447 30.8743 93.6645 30.7688 93.4842C30.6089 93.2111 30.4491 92.9379 30.2898 92.6644C29.818 91.8548 29.3337 91.0532 28.8478 90.2519C28.0587 88.9438 27.307 87.6166 26.5674 86.28C26.3421 85.8733 26.114 85.4692 25.8743 85.0708C24.5286 82.8248 23.9664 80.3995 23.3895 77.8734C23.2962 77.4655 23.2016 77.0579 23.1059 76.6503C22.9482 75.9734 22.7971 75.295 22.6485 74.616C22.6142 74.4595 22.58 74.3028 22.5447 74.1416C21.9281 71.3157 21.3599 68.499 21.029 65.6232C20.9354 64.8428 20.796 64.091 20.6084 63.3282C20.2688 61.918 20.2498 60.6072 20.663 59.2001C20.8565 58.5116 20.9113 57.8215 20.9654 57.1113C21.0677 55.7818 21.2132 54.4914 21.5143 53.1904C21.5369 53.0901 21.5596 52.9897 21.583 52.8863C22.6492 48.252 24.3388 43.454 27.476 39.8267C27.7302 39.5323 27.9804 39.2346 28.2304 38.9365C28.3986 38.7363 28.5683 38.5372 28.738 38.3384C28.9674 38.0698 29.1936 37.7992 29.4185 37.5271C30.9615 35.672 32.6522 33.9241 34.6219 32.5211C34.6967 32.4673 34.7715 32.4134 34.8485 32.358C37.2598 30.6384 40.0728 29.3914 42.9086 28.559C43.0018 28.5309 43.0953 28.5029 43.1915 28.4741C45.1364 27.9381 47.1283 27.7949 49.1367 27.8086Z" fill="#7B458F"/>
<path d="M49.6479 34.31C50.7353 34.8548 51.3308 35.6795 51.7231 36.8148C52.1295 38.454 51.8186 40.1812 51.0039 41.6451C49.7871 43.4733 47.8259 44.4298 45.9722 45.5096C41.6602 48.0237 38.1381 51.1628 36.6111 56.0569C36.1908 57.4014 35.5028 58.7602 34.6509 59.8865C34.2083 60.0282 34.2083 60.0282 33.7657 60.0125C33.4575 59.847 33.4575 59.847 33.2599 59.5082C33.1505 58.6128 33.333 57.8332 33.6313 56.9946C33.671 56.8804 33.7109 56.7661 33.7518 56.6484C35.2148 52.5597 37.8555 48.7823 41.2269 46.0183C41.3347 45.9205 41.4428 45.8226 41.5539 45.7218C42.5405 44.8489 43.5782 44.303 44.7678 43.7489C46.6546 42.8474 48.7849 41.1559 49.7313 39.2373C49.9459 38.6059 49.9764 38.0306 49.6993 37.4157C49.233 36.7112 48.6107 36.2943 47.8029 36.0584C45.8228 35.7944 43.9637 36.5579 42.3823 37.7086C42.0761 37.9514 41.7773 38.2005 41.4798 38.4538C41.3743 38.5333 41.2689 38.613 41.1602 38.6951C40.8261 38.9762 40.5918 39.2607 40.3337 39.612C40.2351 39.7463 40.1364 39.8806 40.0348 40.0189C39.9261 40.1695 39.8177 40.3201 39.7093 40.471C39.6234 40.5903 39.6234 40.5903 39.5358 40.7122C39.0831 41.3429 38.6366 41.9779 38.1918 42.6142C38.1225 42.7131 38.0533 42.8119 37.9819 42.9137C36.0927 45.6149 34.5923 48.2572 33.499 51.3718C33.3477 51.8008 33.1903 52.2271 33.0306 52.653C33.0021 52.7294 32.9734 52.8061 32.9439 52.8849C32.7348 53.4392 32.5155 53.9888 32.2936 54.5382C31.1418 57.3965 30.4398 60.1574 29.9272 63.1883C29.8761 63.4877 29.8232 63.787 29.7671 64.0856C29.4302 65.9833 29.5735 67.6449 30.0354 69.4973C30.5305 71.4968 30.8807 73.4924 31.1336 75.5355C31.7066 80.1108 32.5558 84.5198 34.5798 88.7024C34.6439 88.8353 34.708 88.9684 34.7742 89.1054C35.4857 90.5698 36.2393 92.012 36.9986 93.4522C37.6633 94.7277 37.6633 94.7277 37.5595 95.1873C37.3465 95.5012 37.119 95.7358 36.8007 95.9439C36.4214 95.9832 36.4214 95.9832 36.042 95.8177C35.4643 95.2669 35.0545 94.6054 34.6746 93.9108C34.6207 93.8136 34.5669 93.7163 34.5114 93.6161C34.0564 92.7755 33.6731 91.9099 33.3209 91.0218C33.1169 90.5195 32.8998 90.0411 32.6189 89.5768C31.8194 88.2536 31.3677 86.9542 30.9756 85.4638C30.9111 85.2261 30.8466 84.9886 30.782 84.7508C30.1853 82.5296 29.6947 80.2885 29.2598 78.0307C29.2175 77.8118 29.1739 77.5931 29.1304 77.3746C28.794 75.6852 28.5991 73.9888 28.4231 72.277C28.3159 71.2375 28.2056 70.2238 27.9168 69.216C27.6106 68.0993 27.648 66.9447 27.6481 65.7962C27.648 65.6998 27.6476 65.6035 27.6474 65.5044C27.6485 61.4536 28.8512 57.8436 30.2362 54.0826C30.6808 52.8742 31.1077 51.6597 31.5337 50.4447C31.7274 49.893 31.9233 49.342 32.1216 48.792C32.1732 48.6487 32.2246 48.5054 32.2777 48.3577C32.8013 46.9464 33.5202 45.715 34.3664 44.4739C34.4441 44.3587 34.5216 44.2436 34.6017 44.1249C34.8875 43.7014 35.1743 43.2789 35.4613 42.8564C35.6158 42.6288 35.7698 42.4009 35.9235 42.1729C35.9725 42.1002 36.0217 42.0276 36.0722 41.9527C36.4513 41.3853 36.808 40.8058 37.1631 40.2234C38.8023 37.5404 40.6098 35.8059 43.5758 34.6071C43.9875 34.4287 44.357 34.2193 44.7441 33.9938C46.3081 33.2039 48.1194 33.6435 49.6479 34.31Z" fill="#7B458F"/>
<path d="M63.9517 8.71145C64.1176 8.75125 64.1176 8.75125 64.2869 8.79182C64.399 8.82046 64.5109 8.8491 64.6263 8.8786C64.8315 8.92422 65.0367 8.96946 65.242 9.01427C70.0566 10.1238 74.9532 11.6844 77.7744 16.0394C80.0097 19.638 81.7353 24.0715 82.4163 28.2527C82.4541 28.4782 82.4986 28.7023 82.5442 28.9261C82.9104 30.8454 82.8108 32.8125 82.3961 34.7106C82.2316 35.4818 82.161 36.2242 82.1376 37.012C82.1052 37.9596 82.0103 38.8046 81.7058 39.7097C81.6776 39.7936 81.6495 39.8777 81.6205 39.9642C79.6482 45.7619 76.2569 49.851 71.9855 54.1223C71.6334 54.4743 71.2822 54.8268 70.9309 55.1794C70.6568 55.4546 70.3824 55.7294 70.108 56.0041C69.9782 56.134 69.8488 56.2639 69.7192 56.3939C69.0749 57.0407 68.4278 57.6782 67.7331 58.2712C65.723 60.0101 64.1543 62.0582 62.8681 64.3745C62.8159 64.4672 62.7638 64.5599 62.71 64.6556C61.9408 66.0328 61.2814 67.4479 60.6782 68.9047C60.616 69.0547 60.5537 69.2046 60.4895 69.3592C59.6782 71.3559 59.1114 73.3181 59.0717 75.4798C59.0698 75.5724 59.068 75.6648 59.0661 75.7601C59.0576 76.2304 59.0535 76.7004 59.0556 77.1709C59.054 77.3473 59.0524 77.5236 59.0505 77.6997C59.051 77.8569 59.0513 78.0139 59.0518 78.1757C58.9541 78.7079 58.764 78.8907 58.3471 79.2237C57.9546 79.3495 57.9546 79.3495 57.5935 79.3495C57.3861 79.2182 57.3861 79.2182 57.2168 78.9719C57.1776 78.6541 57.1612 78.3681 57.1624 78.0502C57.161 77.9125 57.161 77.9125 57.1597 77.772C57.158 77.4719 57.1595 77.1719 57.1619 76.872C57.1622 76.7698 57.1627 76.6674 57.163 76.5621C57.1995 69.9801 60.0463 64.1961 64.0372 59.1093C64.2667 58.8154 64.4938 58.5196 64.7206 58.2235C64.8775 58.019 65.0344 57.8147 65.1914 57.6104C65.2637 57.516 65.3361 57.4214 65.4106 57.3241C65.9662 56.605 66.531 55.995 67.2793 55.4712C68.7258 54.4578 69.9702 53.271 71.2113 52.0202C71.4859 51.7437 71.7618 51.4685 72.0378 51.1936C72.9739 50.2564 73.8606 49.3148 74.673 48.2669C74.7909 48.1238 74.9093 47.9812 75.0282 47.8391C77.5439 44.7411 80.0053 40.5082 80.1086 36.4245C80.1133 36.2593 80.1179 36.094 80.1228 35.9238C80.1296 35.6645 80.136 35.4053 80.1427 35.1459C80.1491 34.8931 80.1562 34.6403 80.1635 34.3875C80.1673 34.2374 80.1712 34.0876 80.1751 33.9331C80.1949 33.6086 80.2465 33.3515 80.3245 33.0401C80.357 32.4507 80.3554 31.8605 80.3559 31.2705C80.3559 31.1854 80.356 31.1002 80.356 31.0126C80.3538 29.6028 80.2607 28.2511 79.9476 26.8739C79.9261 26.7772 79.9045 26.6806 79.8823 26.5811C79.3943 24.4508 78.615 22.4495 77.7381 20.4533C77.6355 20.2195 77.5339 19.9856 77.4323 19.7514C75.9407 16.4152 73.3151 13.957 69.9234 12.6234C69.4792 12.4559 69.0328 12.2954 68.585 12.1378C68.2868 12.0312 67.9917 11.9187 67.6968 11.8034C66.8099 11.4629 66.0069 11.2303 65.0579 11.1516C64.1571 11.0668 63.6949 10.8279 63.1193 10.137C63.0363 10.054 62.9536 9.97089 62.8681 9.88532C62.8211 9.45274 62.8211 9.45274 62.8681 9.00444C63.2375 8.62773 63.449 8.58417 63.9517 8.71145Z" fill="#7B458F"/>
<path d="M70.2848 5.5997C70.445 5.60078 70.445 5.60078 70.6086 5.60189C72.8912 5.66574 74.6614 6.97324 76.2105 8.55652C76.4118 8.77527 76.6101 8.99657 76.8082 9.21824C77.5431 10.0402 78.294 10.6859 79.2048 11.3044C79.7124 11.6526 80.1662 12.0268 80.6058 12.457C80.6911 12.5394 80.7764 12.6218 80.8643 12.7066C83.3684 15.3006 85.2138 19.1888 86.1312 22.6485C86.1685 22.7696 86.2057 22.8905 86.2442 23.0152C86.7057 24.5309 86.7761 26.1462 86.8415 27.7211C86.8804 28.1377 86.9616 28.5148 87.0693 28.918C88.5556 35.0179 86.1461 42.7873 82.9917 48.0644C81.7864 49.9727 80.2535 51.6811 78.7823 53.3844C78.5952 53.6021 78.4098 53.8208 78.2246 54.0401C77.4461 54.9605 76.6428 55.8524 75.82 56.7334C75.3945 57.1894 74.9835 57.6564 74.578 58.1301C74.4635 58.2618 74.349 58.3932 74.2345 58.5248C73.4494 59.4302 72.6968 60.3522 71.9778 61.3116C71.808 61.5369 71.6361 61.7607 71.4639 61.9845C69.913 64.0118 68.5393 66.1632 67.1946 68.3316C67.0701 68.5303 66.9421 68.7267 66.8132 68.9223C66.0268 70.1405 65.5757 71.552 65.1493 72.929C65.1052 73.071 65.0611 73.2131 65.0158 73.3594C64.9296 73.6409 64.8452 73.9227 64.7627 74.2052C64.7039 74.399 64.7039 74.399 64.644 74.5966C64.6101 74.7119 64.5762 74.8274 64.5414 74.9463C64.3814 75.2955 64.2363 75.432 63.9037 75.6194C63.4425 75.5916 63.2294 75.5729 62.899 75.242C62.5639 73.8986 62.8627 72.7891 63.3387 71.5224C63.3957 71.3671 63.4528 71.2118 63.5117 71.0517C63.8329 70.1916 64.1649 69.3374 64.5473 68.5027C64.5819 68.4259 64.6164 68.3491 64.652 68.2701C64.9541 67.6446 65.3596 67.1058 65.7719 66.5491C66.2049 65.9542 66.6017 65.336 67.004 64.72C67.794 63.521 68.6272 62.3721 69.5122 61.242C69.7439 60.9419 69.9634 60.6335 70.1827 60.3243C71.1092 59.0367 72.1284 57.8093 73.1995 56.6404C73.4341 56.3836 73.6612 56.1218 73.8873 55.8575C74.208 55.4878 74.5442 55.1403 74.8919 54.7959C75.4002 54.2917 75.8728 53.7688 76.336 53.2232C76.4335 53.1116 76.531 53 76.6315 52.8851C78.1261 51.1616 79.4928 49.3182 80.7215 47.3954C80.8517 47.1919 80.9842 46.99 81.117 46.7881C82.2201 45.0651 83.0377 43.1994 83.6679 41.2558C83.7378 41.0411 83.8113 40.8277 83.885 40.6144C84.604 38.4506 84.8903 36.1818 84.9054 33.91C84.907 33.6861 84.907 33.6861 84.9085 33.4575C84.9102 33.1416 84.9115 32.8258 84.9126 32.5099C84.9139 32.1938 84.9165 31.8778 84.9202 31.5618C84.947 29.2969 84.7703 27.1426 84.3732 24.9134C84.3255 24.6401 84.278 24.3666 84.2305 24.0933C84.1339 23.5405 84.0365 22.988 83.9271 22.4374C83.8908 22.2492 83.8586 22.06 83.8313 21.8701C83.6797 20.9635 83.2205 20.2585 82.7407 19.4873C82.6555 19.3482 82.5704 19.2092 82.4827 19.0659C82.2361 18.6649 81.9868 18.2656 81.7359 17.8674C81.6737 17.768 81.6112 17.6688 81.547 17.5664C79.8861 14.9469 77.8325 12.7359 75.5515 10.6473C75.3621 10.4723 75.1765 10.2933 74.9915 10.1135C73.5398 8.72419 71.7841 7.88578 69.8609 7.35334C69.3913 7.2164 69.0776 7.09713 68.8013 6.66919C68.7464 6.34677 68.7464 6.34677 68.8013 6.04009C69.1993 5.53458 69.6855 5.59509 70.2848 5.5997Z" fill="#7B458F"/>
<path d="M78.3825 4.74741C79.7293 4.76522 80.4904 5.34363 81.4799 6.16037C81.6627 6.3085 81.8456 6.45661 82.0284 6.60466C82.4004 6.90737 82.77 7.2126 83.1384 7.51975C83.5037 7.82377 83.8748 8.11657 84.2556 8.40145C87.2509 10.7221 88.4867 14.5158 89.4837 18.022C89.6981 18.7692 89.9304 19.5022 90.2091 20.228C90.2401 20.3091 90.271 20.3903 90.3031 20.4737C90.434 20.8114 90.5699 21.1461 90.7142 21.4783C91.0567 22.305 91.1445 23.0909 91.2217 23.9732C91.2878 24.6892 91.4 25.3786 91.5653 26.0785C91.5853 26.1648 91.6052 26.2513 91.6257 26.3403C91.7204 26.7226 91.8272 27.0485 92.0197 27.3934C92.2351 27.8693 92.2567 28.2138 92.2633 28.7349C92.2645 28.823 92.2656 28.9112 92.2668 29.0021C92.2694 29.2857 92.2687 29.5692 92.2672 29.8529C92.2672 29.9972 92.2672 29.9972 92.2672 30.1443C92.2641 31.607 92.1176 32.8451 91.5733 34.2171C91.4259 34.791 91.414 35.3631 91.3928 35.9519C91.3835 36.1742 91.3742 36.3963 91.3647 36.6184C91.3506 36.964 91.3369 37.3093 91.3241 37.6549C91.0565 44.7909 88.2284 51.0655 83.6828 56.5165C83.4245 56.8269 83.1699 57.1404 82.915 57.4536C81.803 58.8048 80.6666 60.1237 79.4612 61.3931C79.327 61.535 79.327 61.535 79.1901 61.6796C78.354 62.5391 77.4382 63.298 76.4268 63.944C75.6914 64.4191 75.2212 64.8789 74.7867 65.6473C74.4634 66.1744 74.0867 66.6461 73.6969 67.1256C73.6264 67.2141 73.5558 67.3026 73.4831 67.3938C73.4152 67.4767 73.3474 67.5596 73.2775 67.6451C73.2171 67.7194 73.1566 67.7935 73.0943 67.8699C72.72 68.2395 72.4495 68.3113 71.9228 68.3287C71.7875 68.3235 71.6521 68.3184 71.5127 68.313C71.242 67.8745 71.2011 67.5659 71.2603 67.0549C71.4479 66.6537 71.6862 66.2911 71.9306 65.9225C71.9993 65.817 72.0678 65.7117 72.1385 65.603C73.4508 63.6146 74.9209 61.8219 76.9379 60.5125C78.3809 59.5516 79.4032 58.3927 80.4258 57.0048C80.7494 56.5772 81.0862 56.1645 81.4326 55.755C81.487 55.6903 81.5413 55.6255 81.5974 55.5589C81.8999 55.2043 82.2143 54.8717 82.5483 54.5465C82.9889 54.1119 83.3668 53.6486 83.735 53.1523C83.8002 53.0646 83.8653 52.977 83.9325 52.8868C85.5918 50.6209 86.8138 48.0858 87.6621 45.4147C87.7062 45.2796 87.7503 45.1444 87.7957 45.0052C88.9033 41.5941 89.4108 38.2883 89.4937 34.7005C89.5261 33.6318 89.6336 32.6426 90.0119 31.6379C90.4491 30.3476 90.0514 29.1116 89.7471 27.8337C89.5257 26.8839 89.3407 25.9254 89.1918 24.9619C88.9016 23.2109 88.5074 21.5081 87.8617 19.8528C87.6161 19.2217 87.4141 18.5927 87.2362 17.9398C86.2894 14.5563 84.5748 11.1565 81.6178 9.12985C80.5983 8.42924 79.7402 7.63327 78.8915 6.73531C78.7276 6.56251 78.5604 6.39286 78.3928 6.22376C78.3107 6.13797 78.2288 6.05218 78.1443 5.96377C78.0768 5.89355 78.0093 5.82334 77.9398 5.75097C77.821 5.53129 77.821 5.53129 77.856 5.19759C77.9834 4.78484 77.9834 4.78484 78.3825 4.74741Z" fill="#7B458F"/>
<path d="M45.0581 7.6607C45.2301 7.65957 45.4022 7.65843 45.5742 7.65726C45.9329 7.65521 46.2915 7.65424 46.6502 7.65387C47.1095 7.65319 47.5687 7.64844 48.0278 7.64275C48.3823 7.63902 48.7368 7.6381 49.0913 7.63798C49.3426 7.6372 49.5942 7.63351 49.8455 7.62976C49.9982 7.63052 50.151 7.63128 50.3082 7.63206C50.4426 7.63144 50.5769 7.63079 50.7151 7.63015C51.0647 7.70724 51.0647 7.70724 51.3637 8.00492C51.5673 8.33436 51.5673 8.33436 51.5595 8.66359C51.4316 8.98696 51.3332 9.1207 51.0647 9.33772C50.7993 9.40503 50.7993 9.40503 50.4863 9.43474C50.3077 9.45356 50.3077 9.45356 50.1256 9.47277C49.9295 9.49128 49.9295 9.49128 49.7294 9.51019C48.7958 9.60775 47.8685 9.7174 46.9426 9.87274C45.1407 10.1748 43.4057 10.3767 41.5766 10.3881C39.7321 10.4012 38.1049 10.7369 36.3614 11.3445C35.4457 11.6558 34.5296 11.944 33.5966 12.1989C32.7326 12.4387 31.892 12.7098 31.0519 13.022C29.9221 13.4377 28.7664 13.7134 27.5959 13.9862C26.2038 14.3128 24.8514 14.6385 23.5432 15.2326C23.3847 15.3031 23.3847 15.3031 23.223 15.375C20.8417 16.4424 18.6215 17.7434 16.4739 19.2211C16.2549 19.3711 16.0343 19.5188 15.8136 19.6665C14.047 20.866 12.5438 22.3369 11.2276 24.0122C11.1639 24.0927 11.1002 24.1733 11.0346 24.2564C10.3274 25.1568 9.64678 26.0371 9.16342 27.0816C8.92661 27.461 8.63681 27.7313 8.31647 28.0411C7.94568 28.4197 7.64297 28.8388 7.33974 29.272C7.27475 29.3649 7.20974 29.4576 7.14277 29.5533C6.51889 30.4644 6.01623 31.4059 5.57253 32.4154C5.53111 32.5096 5.48971 32.6038 5.44703 32.7008C3.99179 36.0654 2.83609 39.7758 2.74277 43.4489C2.70496 44.5827 2.65625 45.8615 1.80246 46.7136C1.36262 46.8233 1.36262 46.8233 0.922777 46.7136C0.418596 46.2328 0.100914 45.7345 0.00087772 45.0413C-0.0100081 44.3514 0.0806734 43.7385 0.255652 43.0708C0.301823 42.8923 0.347924 42.7138 0.393961 42.5351C0.430964 42.3926 0.430964 42.3926 0.468716 42.2473C0.605304 41.716 0.735284 41.1829 0.866324 40.6502C3.28596 30.8615 3.28596 30.8615 6.0531 27.6328C6.72829 26.8218 7.29113 25.9508 7.86128 25.0653C10.2571 21.3487 13.1569 18.4469 17.0034 16.2582C17.3185 16.0766 17.6291 15.8878 17.9394 15.698C20.0645 14.403 22.1908 13.2823 24.5485 12.4733C24.6803 12.4272 24.8121 12.3812 24.9478 12.3337C26.7938 11.6902 28.6468 11.129 30.5461 10.6649C30.8007 10.5999 31.0528 10.5248 31.3041 10.4484C31.7126 10.3409 32.0606 10.3162 32.4814 10.3098C33.2774 10.259 33.8415 10.0189 34.5485 9.66648C36.4829 8.75291 38.6848 8.42759 40.8093 8.39279C41.3926 8.37517 41.7573 8.22705 42.2678 7.95809C43.1913 7.65751 44.0927 7.66467 45.0581 7.6607Z" fill="#7B458F"/>
<path d="M44.7324 4.0511C44.8423 4.05988 44.9524 4.06866 45.0657 4.0777C45.7951 4.14989 46.2698 4.29849 46.8008 4.82938C46.8166 5.15956 46.8166 5.15956 46.8008 5.45829C45.8088 5.83207 44.8105 6.00125 43.765 6.15796C43.6758 6.17156 43.5867 6.18514 43.4948 6.19913C41.3487 6.52478 39.2277 6.70893 37.0575 6.76458C31.4868 6.90915 26.4041 8.46193 21.3697 10.7572C21.1241 10.8691 20.8783 10.9803 20.6325 11.0914C18.7439 11.9468 16.8667 12.8153 15.0883 13.8858C14.9896 13.9451 14.891 14.0044 14.7893 14.0655C12.8826 15.221 11.1646 16.4971 9.55117 18.0366C9.44231 18.1388 9.33347 18.2409 9.22133 18.3462C6.89088 20.5919 5.18605 23.453 4.48405 26.6102C4.3295 27.2918 4.15768 27.8206 3.66011 28.3351C3.38483 28.4766 3.38483 28.4766 3.02303 28.4844C2.52046 28.3137 2.14837 28.0587 1.8747 27.5962C1.8364 27.0368 1.92148 26.6189 2.1146 26.0955C2.19197 25.8847 2.19197 25.8847 2.27091 25.6697C2.3551 25.4481 2.3551 25.4481 2.441 25.2219C2.49843 25.0695 2.55586 24.9171 2.61502 24.7601C3.55677 22.3013 4.78333 20.0222 6.53092 18.0366C6.61835 17.9354 6.70579 17.8343 6.79589 17.73C9.06274 15.1547 11.5744 13.373 14.5849 11.7474C14.6956 11.6877 14.6956 11.6877 14.8086 11.6267C18.0399 9.88344 21.2786 8.17937 24.6996 6.83404C24.7848 6.80054 24.8699 6.76704 24.9578 6.73252C26.494 6.13161 28.0508 5.5387 29.6626 5.17528C29.7456 5.15519 29.8285 5.13508 29.914 5.11436C31.1225 4.83427 32.341 4.80966 33.5769 4.78064C35.5331 4.73235 37.4475 4.65932 39.3525 4.18475C41.119 3.75404 42.9354 3.89982 44.7324 4.0511Z" fill="#7B458F"/>
<path d="M88.1188 6.82962C88.433 7.03313 88.6297 7.19183 88.8785 7.45767C88.9428 7.52486 89.0071 7.59205 89.0732 7.6613C89.3121 7.92223 89.5387 8.19073 89.7646 8.46254C89.8172 8.52493 89.8696 8.58733 89.9237 8.65162C90.1018 8.86466 90.2777 9.07945 90.453 9.29469C90.5346 9.39244 90.5346 9.39244 90.6181 9.49215C91.6508 10.7789 92.3774 12.3375 93.138 13.7935C93.2314 13.9717 93.3254 14.1496 93.42 14.3271C94.3689 16.1078 94.9486 17.7372 94.9789 19.7735C95.0066 21.3264 95.1794 22.763 95.556 24.2696C95.8772 25.5617 96.0095 26.7632 95.9995 28.0967C95.9986 28.2606 95.998 28.4246 95.9971 28.5935C95.9868 29.6187 95.9505 30.6389 95.865 31.661C95.8518 31.8319 95.8518 31.8319 95.8382 32.0062C95.8228 32.1625 95.8228 32.1625 95.8071 32.3219C95.7985 32.4116 95.7899 32.5014 95.781 32.594C95.6967 32.8943 95.5821 33.0182 95.3348 33.2074C94.8187 33.2608 94.6346 33.2468 94.1955 32.9563C93.9947 32.4795 94.0471 31.936 94.0422 31.4268C94.0386 31.2196 94.0351 31.0123 94.0313 30.8049C94.0261 30.4814 94.0215 30.1581 94.0181 29.8346C94.0045 27.6097 94.0045 27.6097 93.4258 25.4764C93.2893 25.1153 93.275 24.8255 93.2703 24.4403C93.2674 24.3003 93.2645 24.1602 93.2615 24.0158C93.2589 23.8678 93.2565 23.7196 93.254 23.567C93.2168 22.2204 93.1076 20.9534 92.803 19.6417C92.7692 19.4871 92.7357 19.3325 92.7011 19.1731C92.064 16.519 90.6209 14.1302 89.1535 11.854C88.735 11.2032 88.33 10.5449 87.929 9.88349C87.8356 9.7303 87.8356 9.7303 87.7403 9.57403C86.6005 7.68749 86.6005 7.68749 86.7263 7.08084C87.1955 6.7705 87.5747 6.73174 88.1188 6.82962Z" fill="#7B458F"/>
<path d="M35.4062 0.898534C35.6106 1.24387 35.6106 1.24387 35.6184 1.6991C35.4695 2.17146 35.3884 2.2471 34.982 2.49964C33.8672 2.91345 32.54 2.7989 31.3685 2.8136C29.1942 2.84108 27.2432 3.02857 25.178 3.75542C25.0297 3.80674 24.8815 3.85805 24.7288 3.91093C23.6406 4.31639 22.6418 4.84654 21.6285 5.41168C20.7557 5.89743 19.8695 6.34647 18.9719 6.78497C16.5839 7.96146 14.5239 9.41692 12.5268 11.1748C12.3865 11.297 12.2463 11.4191 12.106 11.5412C11.9373 11.6898 11.9373 11.6898 11.7653 11.8414C11.4776 12.0435 11.4776 12.0435 11.0141 12.0357C10.5977 11.918 10.5977 11.918 10.3463 11.5412C10.3711 10.8569 10.5355 10.4975 10.9826 9.9872C11.1367 9.80971 11.1367 9.80971 11.2939 9.62862C11.396 9.51385 11.4981 9.39908 11.6032 9.28084C11.6872 9.18031 11.7711 9.07978 11.8576 8.9762C13.2979 7.27585 15.206 6.33689 17.1688 5.36852C17.8788 5.01801 18.5801 4.65441 19.2784 4.28128C20.8023 3.47218 22.3568 2.72501 23.9212 1.99733C24.017 1.95257 24.113 1.90781 24.2119 1.86171C26.6896 0.726626 32.9709 -1.1157 35.4062 0.898534Z" fill="#7B458F"/>
</g>
<defs>
<clipPath id="clip0_786_1772">
<rect width="96" height="98" fill="white"/>
</clipPath>
</defs>
</svg>
